<?xml version="1.0" encoding="UTF-8"?>
<svg id="Layer_1" data-name="Layer 1" xmlns="http://www.w3.org/2000/svg" viewBox="0 0 511.76 474">
  <defs>
    <style>
      .cls-1 {
        fill: gold;
      }
    </style>
  </defs>
  <g id="Layer_2" data-name="Layer 2">
    <g id="Layer_1-2" data-name="Layer 1-2">
      <path class="cls-1" d="m113.39,456.06c10-27.83,19.03-55.42,53.19-63.48-2.44-1.71-3.66-2.69-4.88-3.66-11.71-9.28-23.42-18.07-34.89-27.59-3.41-2.68-5.37-3.92-9.27-1.47-5.61,3.42-11.47,6.59-17.32,9.52-29.04,14.65-63.68,4.64-80.02-23.67-6.1-10.5-11.71-21.24-17.57-32.23,25.62-15.87,50.74-30.77,82.46-14.89-.73-2.68-.98-4.39-1.47-6.1-1.96-7.33-4.39-14.4-6.1-21.73-3.9-17.58-3.9-17.82-21.71-20.99-23.18-4.15-40.26-16.36-50.26-38.1-5.37-11.96-7.06-24.17-4.15-37.11,2.68-12.45,5.12-24.66,7.81-37.84,28.3,4.88,56.6,8.3,72.21,36.86,7.06-13.67,13.91-26.61,20.25-39.8.73-1.46-.98-4.88-2.44-6.59-9.27-11.48-15.86-23.91-17.57-38.8-2.44-23.19,4.64-42.97,21.72-58.6,10.98-10.26,22.93-19.05,35.36-29.06,10.74,14.89,24.64,27.1,30.74,44.43,10.25,28.81,3.66,54.2-18.3,75.44-57.82,55.91-64.89,144.29-14.39,206.57,40.5,49.8,93.93,68.59,156.4,52.74,62.47-15.86,101-57.62,112.71-121.12,10.01-54.19-6.34-101.32-46.59-139.41-21.95-20.75-28.79-53.7-14.39-80.32,7.56-13.67,18.04-25.88,27.57-39.06,12.69,10.25,24.64,19.04,35.87,28.81,26.83,23.91,30.01,64.94,6.59,93.75-4.88,6.1-5.37,10.25-1.22,16.85,6.1,10.25,10.74,21.48,16.1,32.47,25.37-26.12,41.72-33.94,73.19-35.16,2.93,14.89,7.32,29.79,8.54,44.92,2.68,33.69-19.52,61.28-54.88,67.38-14.15,2.44-21.47,7.08-21.95,21.97-.49,8.54-4.15,16.85-6.83,26.37,14.39-5.86,28.79-8.79,42.69-3.66,13.42,4.88,25.87,11.96,40.01,18.56-8.54,14.65-15.13,28.57-24.15,40.76-17.08,22.71-48.31,29.05-73.92,16.36-7.32-3.66-15.13-11.23-21.95-10.5-6.82.73-12.44,10.01-18.78,14.89-7.81,6.1-16.1,11.72-25.38,18.31,32.69,8.54,42.21,35.4,52.21,64.7-16.84,5.62-33.18,12.7-50.26,16.11-23.66,4.88-50.01-11.23-60.76-34.18-3.12-6.6-5.89-13.37-8.29-20.26-1.22-3.66-3.17-4.39-7.06-4.39-10.74.49-21.47-.24-32.2.24-2.2,0-5.37,1.96-6.34,3.92-3.17,6.35-5.37,13.18-8.29,19.53-13.42,29.79-46.6,43.7-77.1,32.23-11.95-4.15-22.93-9.02-34.89-13.92h-.04Z"/>
      <path class="cls-1" d="m195.36,317.64c1.96-20.77,3.66-40.29,5.86-59.58.49-4.64-.49-7.81-3.66-10.98-13.17-14.4-25.87-29.05-39.77-44.68,15.13-3.42,29.28-7.81,43.43-9.28,15.61-1.71,25.37-8.79,31.96-22.95,6.1-13.18,14.4-25.39,22.45-39.06,4.63,7.81,8.55,14.65,12.68,21.48,5.86,10.01,11.47,20.51,17.81,30.28,1.96,2.93,5.86,5.88,9.27,6.59,18.79,4.64,37.81,8.54,58.06,12.93-5.61,6.35-10.49,11.96-15.37,17.58-7.56,8.54-14.89,17.58-22.93,25.63-4.88,4.88-5.37,9.76-4.64,15.87,1.96,17.09,3.66,34.43,5.37,51.52v4.64c-14.64-6.35-29.28-11.72-42.94-19.05-12.2-6.59-22.44-6.35-34.65,0-12.93,6.84-27.57,12.21-42.94,19.05h0Z"/>
    </g>
  </g>
</svg>