<svg xmlns="http://www.w3.org/2000/svg" viewBox="0 0 383.35 383.44"><defs><style>.cls-1{fill:#fff;}</style></defs><g id="Layer_2" data-name="Layer 2"><g id="Layer_1-2" data-name="Layer 1"><path class="cls-1" d="M178.24,383.44c-6.76-1-13.55-1.76-20.26-3-46.64-8.46-84.92-31.28-115-67.8A185.1,185.1,0,0,1,1.82,218.35C-11,123.54,45.46,39.43,129.29,10.54a191.3,191.3,0,0,1,172.14,24c4.7,3.28,5.85,7.52,3.13,11.42C302,49.6,297.42,50.12,293,47c-19.13-13.32-39.93-23-62.77-27.76C172.85,7.38,121.37,20.14,76.64,58c-31,26.24-50.61,59.77-58.15,99.76-9.42,50,.71,96,30.18,137.62.51.71,1,1.39,1.61,2.06.13.15.41.17.88.34.39-1.43.74-2.83,1.15-4.22,4.12-14.23,13.13-24,27.24-28.38,15.55-4.87,31.28-9.15,46.9-13.77,13.43-4,21.3-14.35,21-27.82a7.16,7.16,0,0,0-1.94-4.45c-13-13.27-19.74-29.1-19.67-47.75,0-7.08,0-14.16,0-21.64-3.43,0-6.52.05-9.6,0-5.65-.1-8.64-2.86-8.65-8.5,0-14.47-.34-29,.33-43.41,1.22-26.43,21.6-50.05,47.55-55.66a72.25,72.25,0,0,1,14.07-1.54c13.72-.2,27.45-.15,41.17,0,28.73.21,55.44,23.42,58.64,52,1.42,12.7.69,25.64.92,38.48,0,2.74,0,5.49,0,8.23,0,6.47-3.68,9.61-10,8.66-1-.14-2-.24-3.46-.43,0,3.39.11,6.59,0,9.78-.39,9.32-.19,18.73-1.49,27.93-1.8,12.68-8.27,23.32-16.93,32.7a9.52,9.52,0,0,0-2.4,5.76c-.16,13.45,7.41,23.58,20.39,27.46q22.17,6.62,44.4,13c16.88,4.8,27.43,15.5,31.16,32.76.05.22.26.4.73,1.06.93-1.2,1.83-2.26,2.63-3.4,17.93-25.48,28.7-53.67,31.72-84.71,4.36-44.75-6.38-85.5-32.6-122.09-2.16-3-3.64-6.06-1.54-9.64,1.57-2.68,4.06-4.44,7.13-3.7a10.67,10.67,0,0,1,5.81,3.47,187.12,187.12,0,0,1,34.53,80.22c1.17,6.71,2,13.47,3,20.21v27c-.32,2.31-.69,4.62-1,6.94-3.32,28.47-11.9,55.21-27.18,79.51C324.83,340,281.67,369.9,225.42,380.45c-6.69,1.26-13.49,2-20.24,3Zm42.94-152.82c-19.89,9.41-39.4,9.26-59.11.42-1.49,9.51-5.74,17.13-12.52,24.49,5.06,3.88,9.67,7.85,14.72,11.14,6.06,4,8,7.48,5.5,11.9s-7.22,5.24-13.28,1c-6.82-4.71-13.13-10.15-20.08-15.61-1.35.44-3.58,1.22-5.84,1.88Q108,272.5,85.45,279.07c-11,3.22-17.38,10.66-19.35,21.89a90.4,90.4,0,0,0-1.46,11.1,5.72,5.72,0,0,0,1.8,4.06c8.61,7.35,17.34,14.58,26.11,21.75A74.31,74.31,0,0,0,98.9,342c0-8.56,0-16.38,0-24.19,0-5.5,2.83-8.66,7.58-8.61,4.58,0,7.34,3.18,7.35,8.45,0,9.36.25,18.73-.1,28.07-.15,3.81,1.29,5.41,4.53,6.83a181.85,181.85,0,0,0,61.6,15.37A177.49,177.49,0,0,0,266.36,352c2.57-1.17,3.35-2.58,3.29-5.34-.19-9.35-.08-18.71-.07-28.07,0-6.2,2.61-9.42,7.56-9.37s7.38,3.22,7.38,9.56,0,13,0,19.46c0,1.05.12,2.1.21,3.65,10.78-6.63,20-14.3,29.05-22.33,4.17-3.7,5.14-7.37,4.59-12.89-1.59-15.93-9.39-25.37-25.19-29.15-14.5-3.46-28.75-8-43-12.57-3.78-1.21-5.62-.47-8.49,2.07a225,225,0,0,1-19.57,14.79c-2.67,1.88-5.73,1.42-8.35-.65-2.39-1.89-3.54-4.65-2.47-7.31a12.53,12.53,0,0,1,4.82-5.66c6.23-3.76,12.07-7.87,16.76-13.74A44.72,44.72,0,0,1,221.18,230.62ZM255.28,132c0-11.09.47-21.71-.1-32.27a46.41,46.41,0,0,0-45.25-44.16q-20.76-.45-41.54,0c-22.46.5-41.78,16.8-44.73,39.17-1.67,12.76-.63,25.88-.8,38.83,0,.2.23.41.79,1.36,7-.61,14.5-.85,21.84-2,17-2.59,32.46-9.37,46.4-19.46,3.53-2.55,6.89-2.91,10.73-.71,4.21,2.41,8.55,4.61,12.92,6.74A137,137,0,0,0,255.28,132ZM140.52,149.73c.36,10.16-.2,20.86,1.32,31.26,3.29,22.4,23.38,40.25,45.29,41.49,24.72,1.4,46-13.21,52.56-36.23,3.87-13.59,1.41-27.5,2.22-41.41a171,171,0,0,1-42-16.19c-1-.55-3.12-.09-4.24.64a117.26,117.26,0,0,1-29.91,14.26C157.72,145.94,149.42,147.59,140.52,149.73Z"/><path class="cls-1" d="M322.16,69a7.41,7.41,0,0,1-7.73-7.3A7.25,7.25,0,0,1,321.69,54a7.5,7.5,0,0,1,7.74,7.32A7.24,7.24,0,0,1,322.16,69Z"/><path class="cls-1" d="M191.58,289.11a7.85,7.85,0,0,1-7.91-7.29,7.62,7.62,0,0,1,7.41-7.71,7.84,7.84,0,0,1,7.91,7.28A7.62,7.62,0,0,1,191.58,289.11Z"/><path class="cls-1" d="M191,206.06a19.23,19.23,0,0,1-16.49-9.54,7.28,7.28,0,0,1,2-10.19c3.22-2.26,7.18-1.72,10,1.38,4.14,4.48,5.45,4.49,9.43.1,3-3.26,7.05-3.8,10.33-1.34A7.32,7.32,0,0,1,208,196.73C204.14,202.85,198.47,205.91,191,206.06Z"/></g></g></svg>