<svg width="46" height="45" xmlns="http://www.w3.org/2000/svg" xmlns:xlink="http://www.w3.org/1999/xlink" xml:space="preserve" overflow="hidden"><defs><clipPath id="clip0"><rect x="346" y="273" width="46" height="45"/></clipPath></defs><g clip-path="url(#clip0)" transform="translate(-346 -273)"><path d="M20.918 45C20.1247 44.8826 19.3278 44.7934 18.5403 44.6479 13.0667 43.6551 8.57422 40.9769 5.04407 36.691 2.42058 33.533 0.745712 29.6962 0.213593 25.6253-1.29095 14.4985 5.33512 4.62745 15.1733 1.23696 21.9698-1.11402 29.4812-0.0667726 35.3754 4.05357 35.927 4.4385 36.062 4.9361 35.7427 5.3938 35.4423 5.82099 34.9048 5.88202 34.3861 5.51586 32.141 3.95264 29.7 2.81661 27.0195 2.25798 20.2854 0.866107 14.2438 2.3636 8.99437 6.8068 5.35625 9.88629 3.05485 13.8213 2.16996 18.5145 1.06444 24.3824 2.25329 29.7809 5.71184 34.6654 5.7717 34.7487 5.8292 34.8285 5.90079 34.9072 5.91605 34.9248 5.94891 34.9271 6.00407 34.9471 6.04984 34.7792 6.09091 34.6149 6.13903 34.4518 6.62255 32.7818 7.67995 31.6352 9.33588 31.1212 11.1608 30.5496 13.0069 30.0473 14.84 29.5051 16.4161 29.0357 17.3397 27.821 17.3045 26.2402 17.2917 26.0449 17.2112 25.8602 17.0769 25.718 15.5512 24.1606 14.7602 22.3028 14.7684 20.1141 14.7684 19.2832 14.7684 18.4523 14.7684 17.5745 14.3659 17.5745 14.0032 17.5803 13.6418 17.5745 12.9787 17.5627 12.6278 17.2388 12.6266 16.5769 12.6266 14.8787 12.5867 13.1735 12.6653 11.4824 12.8085 8.38058 15.2003 5.60857 18.2457 4.95019 18.7889 4.83604 19.342 4.77551 19.897 4.76946 21.5071 4.74598 23.1185 4.75185 24.7286 4.76946 28.1004 4.7941 31.235 7.51799 31.6106 10.8721 31.7772 12.3626 31.6915 13.8812 31.7185 15.3881 31.7185 15.7096 31.7185 16.0324 31.7185 16.3539 31.7185 17.1132 31.2866 17.4817 30.5449 17.3703 30.4276 17.3538 30.3102 17.3421 30.1389 17.3198 30.1389 17.7176 30.1518 18.0932 30.1389 18.4676 30.0931 19.5613 30.1166 20.6657 29.964 21.7454 29.7528 23.2335 28.9935 24.4822 27.9771 25.583 27.81 25.7703 27.7107 26.0084 27.6955 26.259 27.6767 27.8375 28.5651 29.0263 30.0884 29.4817 31.823 29.9996 33.5599 30.5082 35.2991 31.0073 37.2801 31.5707 38.5183 32.8264 38.956 34.852 38.9619 34.8778 38.9865 34.8989 39.0417 34.9764 39.1508 34.8356 39.2565 34.7112 39.3504 34.5774 41.4546 31.5871 42.7185 28.2787 43.073 24.6359 43.5847 19.3841 42.3242 14.6018 39.2471 10.3076 38.9936 9.95553 38.8199 9.59642 39.0663 9.17627 39.2506 8.86175 39.5428 8.6552 39.9031 8.74205 40.1686 8.80021 40.4079 8.94314 40.585 9.14928 42.6595 11.9239 44.0481 15.1499 44.6374 18.5638 44.7747 19.3513 44.8721 20.1446 44.9894 20.9356L44.9894 24.1043C44.9519 24.3754 44.9085 24.6465 44.8721 24.9188 44.4824 28.26 43.4755 31.3981 41.6823 34.2499 38.1216 39.9019 33.0564 43.411 26.455 44.6491 25.6699 44.797 24.8718 44.8838 24.0796 45.0012ZM25.9574 27.0653C23.6231 28.1696 21.3335 28.152 19.0203 27.1145 18.8455 28.2306 18.3467 29.1249 17.551 29.9887 18.1448 30.444 18.6858 30.9099 19.2785 31.296 19.9897 31.7655 20.2174 32.1739 19.924 32.6926 19.6306 33.2113 19.0766 33.3076 18.3655 32.81 17.5651 32.2572 16.8245 31.6188 16.0089 30.978 15.8505 31.0296 15.5887 31.1212 15.3235 31.1986 13.5576 31.7197 11.7925 32.2372 10.0283 32.7513 8.73735 33.1292 7.9886 34.0023 7.75741 35.3203 7.67344 35.7505 7.61621 36.1855 7.58606 36.6229 7.58943 36.8038 7.6656 36.9755 7.79731 37.0994 8.80777 37.962 9.83231 38.8105 10.8615 39.652 11.1016 39.8261 11.3503 39.9878 11.6068 40.1367 11.6068 39.1321 11.6068 38.2143 11.6068 37.2978 11.6068 36.6523 11.9389 36.2814 12.4963 36.2873 13.0339 36.2873 13.3578 36.6605 13.3589 37.279 13.3589 38.3775 13.3883 39.4771 13.3472 40.5732 13.3296 41.0204 13.4986 41.2081 13.8788 41.3748 16.1642 42.3953 18.6112 43.0058 21.1081 43.1786 24.5951 43.4173 28.0862 42.7749 31.2596 41.3102 31.5613 41.1729 31.6528 41.0075 31.6458 40.6835 31.6235 39.5862 31.6364 38.4878 31.6375 37.3893 31.6375 36.6617 31.9438 36.2838 32.5248 36.2896 33.1057 36.2955 33.3909 36.6675 33.3909 37.4116 33.3909 38.1556 33.3909 38.9373 33.3909 39.6954 33.3909 39.8186 33.405 39.9418 33.4155 40.1237 34.6807 39.3457 35.7627 38.4455 36.8248 37.5031 37.3142 37.0689 37.428 36.6382 37.3635 35.9904 37.1769 34.1209 36.2615 33.013 34.4072 32.5694 32.7055 32.1633 31.0331 31.6305 29.3608 31.0942 28.9172 30.9522 28.7012 31.039 28.3644 31.3371 27.6309 31.957 26.8642 32.5365 26.0677 33.0728 25.7544 33.2935 25.3952 33.2395 25.0878 32.9966 24.8073 32.7747 24.6723 32.4508 24.7979 32.1387 24.9149 31.8651 25.1122 31.6336 25.3636 31.4744 26.0947 31.0331 26.7801 30.5508 27.3305 29.8619 26.6003 29.0902 26.1215 28.1149 25.9574 27.0653ZM29.9593 15.4913C29.9593 14.1898 30.0145 12.9435 29.9476 11.7042 29.8099 8.85155 27.4922 6.58969 24.6371 6.52162 23.0129 6.48641 21.3878 6.48641 19.762 6.52162 17.1261 6.5803 14.8588 8.49325 14.5126 11.1186 14.3166 12.6161 14.4386 14.1558 14.4187 15.6756 14.4187 15.6991 14.4457 15.7237 14.5114 15.8352 15.3329 15.7636 16.2131 15.7354 17.0745 15.6005 19.0696 15.2965 20.884 14.5008 22.52 13.3167 22.9342 13.0174 23.3286 12.9752 23.7792 13.2334 24.2733 13.5162 24.7826 13.7744 25.2955 14.0244 26.7662 14.7482 28.3391 15.243 29.9593 15.4913ZM16.4912 17.5721C16.5335 18.7645 16.4678 20.0202 16.6462 21.2407 17.0323 23.8696 19.39 25.9644 21.9613 26.11 24.8624 26.2743 27.3598 24.5596 28.1297 21.858 28.5839 20.2631 28.2952 18.6307 28.3902 16.9982 26.6707 16.5849 25.0132 15.946 23.4612 15.0982 23.3438 15.0336 23.095 15.0876 22.9636 15.1733 21.8786 15.8945 20.6968 16.4579 19.4534 16.8468 18.5098 17.1273 17.5357 17.321 16.4912 17.5721Z" fill="#0D1117" transform="matrix(1.02222 0 0 1 346.005 273)"/><path d="M37.8083 8.09775C37.3284 8.11853 36.9226 7.74641 36.9018 7.26658 36.9014 7.25806 36.9012 7.24955 36.9011 7.24103 36.8719 6.77203 37.2285 6.36817 37.6975 6.339 37.716 6.33785 37.7346 6.33731 37.7531 6.33737 38.239 6.32168 38.6455 6.70282 38.6612 7.18869 38.6613 7.19127 38.6613 7.19385 38.6615 7.19643 38.69 7.66482 38.3334 8.06767 37.8651 8.09619 37.8462 8.09734 37.8272 8.09786 37.8083 8.09775Z" fill="#0D1117" transform="matrix(1.02222 0 0 1 346.005 273)"/><path d="M22.4836 33.9296C21.9966 33.9345 21.59 33.5598 21.5553 33.074 21.5493 32.5855 21.9366 32.1826 22.4249 32.1692 22.9116 32.1635 23.3185 32.538 23.3532 33.0236 23.3598 33.5125 22.9724 33.9162 22.4836 33.9296Z" fill="#0D1117" transform="matrix(1.02222 0 0 1 346.005 273)"/><path d="M22.4155 24.1829C21.6179 24.1779 20.8822 23.7523 20.4803 23.0633 20.2137 22.6739 20.3133 22.1423 20.7027 21.8757 20.7068 21.873 20.7109 21.8701 20.715 21.8674 21.0929 21.6022 21.5576 21.6656 21.8886 22.0294 22.3744 22.5552 22.5282 22.5563 22.9953 22.0411 23.3473 21.6585 23.8226 21.5952 24.2076 21.8839 24.5956 22.157 24.6887 22.6928 24.4156 23.0808 24.414 23.0832 24.4124 23.0856 24.4106 23.088 23.9576 23.8062 23.2922 24.1653 22.4155 24.1829Z" fill="#0D1117" transform="matrix(1.02222 0 0 1 346.005 273)"/></g></svg>