<svg xmlns="http://www.w3.org/2000/svg" viewBox="0 0 383.23 383.17"><defs><style>.cls-1{fill:#fff;}</style></defs><g id="Layer_2" data-name="Layer 2"><g id="Layer_1-2" data-name="Layer 1"><path class="cls-1" d="M204.35,0c7.14,1,14.3,1.85,21.4,3.06,74.8,12.7,138,72.8,152.87,147,14.68,73-5.69,135.36-60.72,185.63-27.52,25.14-60.39,40.24-97.4,45.36-62.44,8.65-116.95-8.6-162.54-52.17-30.3-29-48.32-64.8-55.51-106.06C1.42,216.92.81,211,0,205.1V178.9c1-7.12,1.81-14.28,3.06-21.35A189,189,0,0,1,35.5,80.41c2.68-3.78,7.42-4.59,10.83-2.1,3.59,2.63,4.16,6.94,1.13,11.26a178.18,178.18,0,0,0-24.64,49.65C-5.29,229.72,43.31,326.61,132.59,358.1c98.07,34.58,204.7-22,230.15-123C387.82,135.68,325.06,40.78,231,19.44c-49.85-11.3-96.16-2.07-138.7,26.2-.83.56-1.64,1.14-2.49,1.67-4.08,2.54-8.47,1.86-10.92-1.68s-1.42-8,2.42-10.75A190.54,190.54,0,0,1,176.4.64,14.12,14.12,0,0,0,178.9,0Z"/><path class="cls-1" d="M223.05,160.2c12.62,0,24.7,0,36.78,0,16.75,0,30.49,12.07,32,28,1.6,16.74-9.2,31.09-26,34.38a33.31,33.31,0,0,1-6.32.44c-11.72.05-23.44,0-35.17.05-.24,0-.49.07-1.33.2v3.82c0,11.1,0,22.19,0,33.29a31.42,31.42,0,1,1-62.83.09c-.05-12.33,0-24.65,0-37.43H156c-11.22,0-22.45.06-33.67,0a31.41,31.41,0,0,1-.07-62.81c12.46-.08,24.92,0,38,0v-4c0-11.23,0-22.45,0-33.67A31.41,31.41,0,0,1,223,122.4C223.1,134.84,223.05,147.29,223.05,160.2Zm-47.9,77.93c0,7.35-.11,14.71,0,22.06.21,11.2,10.08,18.84,20.61,16.1,7.45-1.94,12.26-8.36,12.3-16.71.06-14.21,0-28.42,0-42.64,0-6.2,2.65-8.82,8.88-8.83,14.09,0,28.19.26,42.26-.17a22.89,22.89,0,0,0,11.38-3.73c5.88-3.92,7.64-11.38,5.33-18a16.58,16.58,0,0,0-15.81-11c-14.34-.1-28.68,0-43,0-6.44,0-9-2.6-9-9.07,0-14,.25-27.94-.17-41.89a23.33,23.33,0,0,0-3.61-11.42c-3.85-5.91-11.33-7.77-18-5.56a16.72,16.72,0,0,0-11.2,16.08c-.08,14.34,0,28.68,0,43,0,6.19-2.67,8.83-8.88,8.84-14.09,0-28.19-.21-42.27.15a22.46,22.46,0,0,0-10.8,3.27c-6.07,3.77-8.21,11.39-6,18.14a16.66,16.66,0,0,0,15.95,11.37c14.59.1,29.18,0,43.76.05,5.45,0,8.25,2.84,8.27,8.31C175.17,223.66,175.14,230.89,175.15,238.13Z"/><path class="cls-1" d="M186.62,347.3c-42.84-2.21-79.46-18.23-108.93-49.62a152,152,0,0,1-38-72.1c-1.22-5.5.85-9.59,5.32-10.6s8.21,1.87,9.51,7.7a134.44,134.44,0,0,0,26.9,56c23.94,29.57,54.75,47.2,92.55,52.28,5.66.76,11.41,1,17.12,1.33,4.93.29,8,3.06,8,7.47s-3.23,7.46-8.36,7.51Z"/><path class="cls-1" d="M43.55,199.15a7.53,7.53,0,1,1,7.33-7.65A7.27,7.27,0,0,1,43.55,199.15Z"/><path class="cls-1" d="M61.36,53.91a7.21,7.21,0,0,1,7.54,7.4,7.37,7.37,0,0,1-7.43,7.59,7.21,7.21,0,0,1-7.56-7.38A7.48,7.48,0,0,1,61.36,53.91Z"/></g></g></svg>