<svg xmlns="http://www.w3.org/2000/svg" viewBox="0 0 383.71 383.68"><defs><style>.cls-1{fill:#fff;}</style></defs><g id="Layer_2" data-name="Layer 2"><g id="Layer_1-2" data-name="Layer 1"><path class="cls-1" d="M49.1,383.68c-9.85-2.05-19.17-5.39-27-11.92C3.26,356.08-4,335.93,2.14,312.35,8.21,289.1,24,274.66,47.88,270.5a57,57,0,0,1,66.4,49.84c3.47,29.69-17.49,57.7-47,62.77a13.74,13.74,0,0,0-1.75.57Zm8.75-98.6c-22.45.33-41.66,16.74-42,41.27C15.47,349,32.68,368,57,368.3c22.4.3,41.34-16.61,41.85-40.93C99.32,305.19,82.6,286.22,57.85,285.08Z"/><path class="cls-1" d="M383.71,36.27c-2.09,3.32-4.92,4.75-9,4.75Q272.05,40.87,169.39,41c-5.88,0-9.1-2.94-8.93-8.05a7.38,7.38,0,0,1,7.06-7.28c.87-.06,1.74,0,2.62,0q102.09,0,204.19-.08c4.19,0,7.22,1.25,9.38,4.76Z"/><path class="cls-1" d="M383.71,171c-2.16,3.51-5.19,4.76-9.38,4.75q-102.29-.15-204.57-.07c-6.24,0-9.48-2.82-9.3-8.05a7.37,7.37,0,0,1,7.06-7.28c.87-.06,1.75,0,2.62,0q102.09,0,204.19-.08c4.19,0,7.23,1.25,9.38,4.76Z"/><path class="cls-1" d="M383.71,305.81c-2.16,3.5-5.2,4.76-9.39,4.75q-102.27-.15-204.56-.07c-6.24,0-9.48-2.83-9.3-8.06a7.36,7.36,0,0,1,7.06-7.27c.87-.06,1.75,0,2.62,0q102.09,0,204.19-.08c4.19,0,7.23,1.24,9.38,4.76Z"/><path class="cls-1" d="M57.09,114.33c-30.77.53-57.2-26.1-57-57.53C.34,25.91,26.57-.13,57.58,0s57.2,26.48,57,57.66C114.33,88.38,88.36,115.07,57.09,114.33Zm.41-98.79c-23.2.59-41.31,17.84-41.78,41.62C15.28,79.62,34.11,98.79,57,98.82S98.63,81.63,98.86,57.49C99.08,34.55,81.56,16.4,57.5,15.54Z"/><path class="cls-1" d="M57.19,249.1C26.34,249.67-.06,223,.11,191.66c.17-31,26.54-57.17,57.75-56.89,30.82.28,57,26.42,56.64,57.56A57.11,57.11,0,0,1,57.19,249.1ZM99,191.9c-.82-23.77-18.62-41.35-41.88-41.5-22.72-.13-41.37,18.9-41.49,41.52s19.07,41.79,41.7,41.78S99.19,214.44,99,191.9Z"/><path class="cls-1" d="M249.57,223.64q-25.44,0-50.86,0c-5.47,0-9.06-3.14-9-7.77s3.54-7.57,8.8-7.57H300.61c5.25,0,8.74,3.06,8.8,7.58s-3.51,7.76-9,7.76Q275,223.66,249.57,223.64Z"/><path class="cls-1" d="M220,88.87q-25.8,0-51.6,0c-3.87,0-6.73-2.08-7.7-5.32a7.61,7.61,0,0,1,3.26-8.8,9.77,9.77,0,0,1,4.59-1.16q51.6-.1,103.2,0c5,0,8.14,3.08,8.11,7.74s-3.18,7.58-8.26,7.59Q245.78,88.91,220,88.87Z"/><path class="cls-1" d="M220.13,343.06H271c5.69,0,8.89,2.83,8.86,7.74,0,4.75-3.22,7.6-8.64,7.6q-51.22,0-102.45,0c-4.17,0-7.19-2-8-5.35s-.22-6.64,2.93-8.55a11.5,11.5,0,0,1,5.62-1.39C186.22,343,203.18,343.06,220.13,343.06Z"/><path class="cls-1" d="M301.73,358.4a7.67,7.67,0,1,1,7.68-7.9A7.76,7.76,0,0,1,301.73,358.4Z"/><path class="cls-1" d="M301.62,88.86a7.67,7.67,0,1,1,7.79-7.78A7.73,7.73,0,0,1,301.62,88.86Z"/><path class="cls-1" d="M175.79,216a7.67,7.67,0,1,1-7.72-7.71A7.43,7.43,0,0,1,175.79,216Z"/></g></g></svg>