<svg width="45" height="45" xmlns="http://www.w3.org/2000/svg" xmlns:xlink="http://www.w3.org/1999/xlink" xml:space="preserve" overflow="hidden"><defs><clipPath id="clip0"><rect x="514" y="273" width="45" height="45"/></clipPath></defs><g clip-path="url(#clip0)" transform="translate(-514 -273)"><path d="M519.758 317.998C518.603 317.758 517.51 317.366 516.592 316.6 514.382 314.761 513.531 312.398 514.251 309.633 514.963 306.906 516.815 305.213 519.615 304.725 523.253 304.093 526.713 306.53 527.345 310.167 527.368 310.301 527.387 310.435 527.402 310.57 527.809 314.052 525.351 317.337 521.89 317.931 521.82 317.949 521.752 317.971 521.685 317.998ZM520.784 306.435C518.152 306.474 515.899 308.398 515.859 311.275 515.814 313.931 517.833 316.159 520.685 316.195 523.312 316.23 525.533 314.247 525.593 311.394 525.648 308.793 523.687 306.569 520.784 306.435Z" fill="#0D1117"/><path d="M559 277.255C558.755 277.645 558.423 277.812 557.945 277.812 549.918 277.801 541.892 277.8 533.865 277.81 533.176 277.81 532.798 277.465 532.818 276.866 532.824 276.407 533.187 276.032 533.646 276.012 533.748 276.005 533.85 276.012 533.953 276.012 541.935 276.012 549.917 276.009 557.9 276.003 558.391 276.003 558.747 276.149 559 276.561Z" fill="#0D1117"/><path d="M559 293.056C558.747 293.468 558.391 293.614 557.9 293.613 549.903 293.601 541.906 293.599 533.909 293.605 533.177 293.605 532.797 293.274 532.818 292.661 532.823 292.201 533.187 291.826 533.646 291.807 533.748 291.8 533.851 291.807 533.953 291.807 541.935 291.807 549.917 291.804 557.9 291.798 558.391 291.798 558.748 291.944 559 292.356Z" fill="#0D1117"/><path d="M559 308.866C558.747 309.276 558.39 309.424 557.899 309.423 549.903 309.411 541.906 309.409 533.909 309.415 533.177 309.415 532.797 309.083 532.818 308.47 532.823 308.01 533.187 307.636 533.646 307.617 533.748 307.61 533.851 307.617 533.953 307.617 541.935 307.617 549.917 307.614 557.9 307.608 558.391 307.608 558.748 307.753 559 308.166Z" fill="#0D1117"/><path d="M520.695 286.41C517.087 286.472 513.987 283.349 514.011 279.663 514.04 276.04 517.116 272.987 520.753 273.002 524.389 273.017 527.461 276.107 527.438 279.764 527.408 283.367 524.362 286.497 520.695 286.41ZM520.743 274.824C518.023 274.893 515.899 276.916 515.844 279.705 515.792 282.339 518 284.587 520.685 284.591 523.369 284.595 525.567 282.575 525.594 279.744 525.62 277.054 523.565 274.925 520.743 274.824Z" fill="#0D1117"/><path d="M520.707 302.215C517.089 302.282 513.993 299.154 514.013 295.479 514.033 291.843 517.125 288.774 520.786 288.807 524.4 288.84 527.47 291.905 527.428 295.557 527.406 299.25 524.4 302.228 520.707 302.215ZM525.61 295.507C525.514 292.719 523.427 290.658 520.699 290.64 518.034 290.625 515.847 292.857 515.833 295.509 515.819 298.162 518.069 300.41 520.723 300.409 523.377 300.408 525.633 298.15 525.61 295.507Z" fill="#0D1117"/><path d="M543.269 299.229C541.28 299.229 539.291 299.229 537.304 299.229 536.662 299.229 536.241 298.861 536.248 298.318 536.255 297.775 536.664 297.43 537.28 297.43L549.254 297.43C549.87 297.43 550.279 297.789 550.286 298.319 550.293 298.849 549.875 299.229 549.231 299.229 547.244 299.231 545.257 299.231 543.269 299.229Z" fill="#0D1117"/><path d="M539.801 283.424C537.784 283.424 535.766 283.424 533.749 283.424 533.295 283.424 532.96 283.18 532.846 282.8 532.721 282.409 532.879 281.983 533.229 281.768 533.394 281.679 533.579 281.633 533.767 281.632 537.801 281.624 541.835 281.624 545.87 281.632 546.456 281.632 546.824 281.993 546.821 282.54 546.817 283.086 546.448 283.429 545.852 283.43 543.833 283.429 541.816 283.427 539.801 283.424Z" fill="#0D1117"/><path d="M539.816 313.234 545.782 313.234C546.449 313.234 546.824 313.566 546.821 314.142 546.821 314.699 546.443 315.034 545.808 315.034 541.803 315.034 537.798 315.034 533.793 315.034 533.304 315.034 532.949 314.799 532.854 314.406 532.759 314.013 532.829 313.627 533.198 313.403 533.4 313.294 533.627 313.238 533.857 313.24 535.839 313.227 537.828 313.234 539.816 313.234Z" fill="#0D1117"/><path d="M549.386 315.034C548.889 315.033 548.487 314.629 548.488 314.132 548.489 313.636 548.892 313.234 549.389 313.234 549.875 313.235 550.272 313.622 550.286 314.107 550.296 314.61 549.896 315.024 549.393 315.033 549.391 315.034 549.388 315.034 549.386 315.034Z" fill="#0D1117"/><path d="M549.373 283.423C548.876 283.415 548.48 283.006 548.488 282.509 548.495 282.013 548.904 281.616 549.401 281.624 549.887 281.632 550.279 282.024 550.286 282.51 550.29 283.011 549.886 283.42 549.386 283.423 549.381 283.423 549.377 283.423 549.373 283.423Z" fill="#0D1117"/><path d="M534.616 298.333C534.613 298.83 534.209 299.231 533.712 299.228 533.215 299.226 532.814 298.821 532.817 298.324 532.82 297.831 533.218 297.432 533.711 297.429 534.191 297.41 534.597 297.784 534.616 298.265 534.617 298.288 534.617 298.311 534.616 298.333Z" fill="#0D1117"/></g></svg>