<svg width="46" height="45" xmlns="http://www.w3.org/2000/svg" xmlns:xlink="http://www.w3.org/1999/xlink" xml:space="preserve" overflow="hidden"><defs><clipPath id="clip0"><rect x="598" y="273" width="46" height="45"/></clipPath></defs><g clip-path="url(#clip0)" transform="translate(-598 -273)"><path d="M35.771 0 36.9147 0C36.9616 0.032451 37.012 0.0596212 37.065 0.0810176 38.3566 0.433268 39.101 1.28806 39.3299 2.59374 39.368 2.9004 39.3899 3.20885 39.3957 3.51781 39.8384 3.51781 40.247 3.51781 40.6556 3.51781 43.045 3.53058 44.9807 5.46106 45 7.85049 45.007 16.1409 45.0032 24.4317 44.9883 32.7229 44.982 33.0384 44.8638 33.3413 44.6548 33.5777 40.982 37.2795 37.2948 40.9667 33.593 44.6395 33.3594 44.8515 33.0581 44.9735 32.7429 44.9836 23.2806 45.0008 13.8184 45.005 4.35616 44.9965 2.39856 44.99 0.684861 43.6805 0.164384 41.7933 0.117417 41.6301 0.0551859 41.4705 0 41.3084L0 7.20705C0.0330054 7.16252 0.0602286 7.11399 0.0810176 7.06262 0.550685 5.09354 1.78826 3.91585 3.76673 3.5683 4.35382 3.46497 4.98082 3.55303 5.55616 3.55303 5.58216 3.502 5.603 3.44851 5.61839 3.39335 5.61839 3.24775 5.61839 3.10215 5.62661 2.95656 5.65949 1.77299 6.2137 0.900587 7.23992 0.339335 7.51496 0.209123 7.79768 0.0958013 8.0865 1.23175e-08L9.14325 0C9.22309 0.0317025 9.30176 0.0692759 9.38395 0.0939335 10.5863 0.457926 11.3155 1.26106 11.5644 2.48454 11.6301 2.80626 11.6055 3.14677 11.6231 3.48611L19.5065 3.48611C19.5065 3.29824 19.5065 3.13386 19.5065 2.98004 19.5393 1.59922 20.3448 0.526027 21.6622 0.103327 21.7387 0.0736778 21.8132 0.039165 21.8853-5.59887e-10L23.0278 0C23.0906 0.0338756 23.1558 0.063302 23.2227 0.0880626 24.4861 0.452055 25.2188 1.29511 25.4536 2.57613 25.4901 2.87645 25.5066 3.17888 25.5029 3.48141L33.3804 3.48141C33.3804 3.27241 33.3746 3.09863 33.3804 2.92485 33.4204 1.77769 33.9511 0.928767 34.9432 0.361644 35.2128 0.227036 35.4891 0.10633 35.771-8.9582e-09ZM1.77417 38.9824 13.4243 38.9824C13.571 38.9824 13.7178 38.9824 13.8634 38.9894 14.4106 39.0329 14.7652 39.3886 14.7581 39.8795 14.7511 40.3703 14.3706 40.7272 13.8423 40.7612 13.7108 40.7695 13.5793 40.7612 13.4477 40.7612L1.78121 40.7612C1.98787 42.3299 3.0364 43.2341 4.58982 43.2352L31.9937 43.2352 31.9937 42.7186C31.9937 40.5945 31.9937 38.4705 31.9937 36.3464 32.0027 35.5236 32.2353 34.7187 32.6665 34.018 32.7882 33.8084 32.8563 33.5721 32.865 33.3299 32.8838 32.0853 32.8708 30.8407 32.8755 29.5949 32.8755 29.0008 33.2102 28.6556 33.7867 28.6485 35.6466 28.6423 37.5068 28.6423 39.3675 28.6485 39.8982 28.6485 40.2423 29.0008 40.2505 29.5339 40.2611 30.2219 40.2505 30.91 40.2505 31.5992 40.2505 31.7237 40.2669 31.8481 40.2751 31.9597L43.2399 31.9597 43.2399 31.5933C43.2399 23.742 43.2399 15.8904 43.2399 8.03836 43.2399 6.3863 42.0998 5.26849 40.4348 5.2638 38.809 5.2591 37.1832 5.2591 35.5573 5.2638 35.4305 5.2638 35.3037 5.27906 35.1452 5.28845L35.1452 7.42779C35.1406 7.53004 35.1438 7.63247 35.1546 7.73425 35.2154 8.164 35.4977 8.53014 35.8979 8.69824 36.4943 8.97417 37.4935 8.66888 37.6004 7.55225 37.6556 6.97221 38.0642 6.63992 38.5562 6.69041 39.0481 6.7409 39.4145 7.18943 39.3534 7.7636 39.2219 9.00352 38.602 9.91937 37.4219 10.3597 36.2419 10.8 35.1734 10.5675 34.2634 9.69511 33.6247 9.08454 33.3605 8.31311 33.3734 7.43601 33.3828 6.72329 33.3734 6.01057 33.3734 5.30137L21.2654 5.30137C21.2654 6.01761 21.2654 6.70333 21.2654 7.39021 21.2654 8.19687 21.7186 8.74638 22.4114 8.791 23.1041 8.83562 23.6196 8.36243 23.7182 7.54638 23.7605 7.19413 23.892 6.8818 24.2243 6.79726 24.5105 6.72652 24.8119 6.74999 25.0838 6.86419 25.4736 7.04853 25.5135 7.45127 25.4759 7.85753 25.3526 9.19022 24.2571 10.3562 22.9573 10.5346 21.5296 10.7307 20.1675 9.9593 19.7037 8.63131 19.5593 8.21448 19.5311 7.74599 19.5112 7.29863 19.4795 6.63288 19.5029 5.9636 19.5029 5.30254L7.38082 5.30254C7.38082 6.01292 7.38082 6.69746 7.38082 7.38317 7.38082 8.19217 7.83405 8.74403 8.52211 8.79217 9.22661 8.84501 9.7409 8.35421 9.84423 7.51702 9.8501 7.47358 9.84423 7.42896 9.85597 7.38552 9.95654 6.97246 10.3303 6.68454 10.7554 6.69276 11.1982 6.71089 11.5579 7.0565 11.5937 7.49824 11.6085 7.68797 11.6002 7.8788 11.5691 8.06654 11.2779 9.67515 9.88063 10.7037 8.21918 10.5405 6.7726 10.3984 5.63601 9.07984 5.63601 7.53112 5.63601 6.78904 5.63601 6.04697 5.63601 5.28023 5.13346 5.28023 4.68023 5.24971 4.22701 5.28611 2.86732 5.40117 1.81292 6.42153 1.77534 7.77299 1.72485 9.60235 1.76595 11.4352 1.77534 13.2658 1.77534 13.2881 1.8047 13.3115 1.83992 13.3609L35.609 13.3609C35.7699 13.355 35.931 13.3573 36.0916 13.3679 36.5721 13.4292 36.912 13.8683 36.8507 14.3489 36.8002 14.7453 36.488 15.0574 36.0916 15.108 35.9306 15.1192 35.769 15.1215 35.6078 15.1151L1.77417 15.1151ZM33.755 41.8157 41.8121 33.7609C39.9558 33.7609 38.0407 33.6939 36.1315 33.7832 34.7941 33.8454 33.8043 34.9198 33.7679 36.2395 33.7174 38.1158 33.755 39.9887 33.755 41.8204ZM34.645 32.3448C35.8908 31.7742 37.1977 32.0806 38.4681 31.9656L38.4681 30.4391 34.645 30.4391ZM9.83014 3.49785C9.88532 2.81566 9.79726 2.24149 9.16673 1.9092 8.74656 1.66653 8.21825 1.71998 7.85519 2.04188 7.38552 2.42114 7.32446 2.93777 7.41605 3.49785ZM21.2947 3.48141 23.7018 3.48141C23.7699 2.40117 23.2755 1.72016 22.4571 1.76477 21.7926 1.79883 21.1022 2.33425 21.2947 3.48141ZM37.5734 3.4955C37.6239 2.84853 37.5616 2.29315 36.9863 1.94677 36.5933 1.68437 36.0789 1.69279 35.6947 1.96791 35.1452 2.33072 35.0712 2.87554 35.1675 3.49432Z" fill="#0D1117" transform="matrix(1.02222 0 0 1 598 273.001)"/><path d="M17.7922 25.3104C16.8998 25.3104 16.0074 25.3104 15.1151 25.3104 14.4634 25.3104 14.1252 25.0039 14.1205 24.3534 14.1065 22.5256 14.1065 20.6971 14.1205 18.8677 14.1205 18.2431 14.4728 17.9342 15.0904 17.9284 16.9041 17.9284 18.7182 17.9284 20.5327 17.9284 21.155 17.9284 21.5131 18.2806 21.5166 18.9053 21.5252 20.7056 21.5252 22.5061 21.5166 24.3065 21.5166 24.964 21.1644 25.3057 20.5127 25.3092 19.6086 25.3139 18.6998 25.3104 17.7922 25.3104ZM19.7096 19.7155 15.9311 19.7155 15.9311 23.5362 19.7096 23.5362Z" fill="#0D1117" transform="matrix(1.02222 0 0 1 598 273.001)"/><path d="M27.1961 17.9319C28.1037 17.9319 29.0102 17.9319 29.9178 17.9319 30.5202 17.9319 30.8689 18.2348 30.8748 18.8325 30.8927 20.69 30.8927 22.5476 30.8748 24.4051 30.8689 25.0039 30.5225 25.3068 29.919 25.308 28.0912 25.3127 26.2626 25.3127 24.4333 25.308 23.8603 25.308 23.4939 24.9558 23.4857 24.3851 23.4724 22.5417 23.4724 20.6986 23.4857 18.856 23.4857 18.2795 23.8579 17.9366 24.4321 17.9319 25.3526 17.9272 26.2744 17.9319 27.1961 17.9319ZM25.2975 19.7061 25.2975 23.5221 29.0795 23.5221 29.0795 19.7061Z" fill="#0D1117" transform="matrix(1.02222 0 0 1 598 273.001)"/><path d="M17.8004 36.0341C16.9233 36.0341 16.045 36.0341 15.1679 36.0341 14.4575 36.0341 14.1229 35.7346 14.1182 35.0419 14.1065 33.2415 14.1065 31.4411 14.1182 29.6407 14.1182 28.962 14.454 28.6532 15.1268 28.6532 16.9272 28.6532 18.7276 28.6532 20.528 28.6532 21.1538 28.6532 21.5166 28.9961 21.519 29.6219 21.5284 31.4364 21.5284 33.2505 21.519 35.0642 21.519 35.6888 21.1526 36.027 20.5245 36.0305 19.6145 36.0364 18.708 36.0341 17.8004 36.0341ZM15.9147 34.2634 19.7108 34.2634 19.7108 30.4344 15.9147 30.4344Z" fill="#0D1117" transform="matrix(1.02222 0 0 1 598 273.001)"/><path d="M27.1973 28.6497C28.1037 28.6497 29.0114 28.6497 29.9178 28.6497 30.5213 28.6497 30.8689 28.9526 30.8748 29.5503 30.8927 31.4078 30.8927 33.2657 30.8748 35.1241 30.8689 35.7217 30.5225 36.0247 29.919 36.0258 28.0896 36.0305 26.2611 36.0305 24.4333 36.0258 23.8603 36.0258 23.4939 35.6736 23.4857 35.1029 23.4724 33.2595 23.4724 31.416 23.4857 29.5726 23.4857 28.9973 23.8591 28.6544 24.4321 28.6497 25.3538 28.6497 26.2755 28.6497 27.1973 28.6497ZM29.0759 34.2564 29.0759 30.4262 25.2881 30.4262 25.2881 34.2611Z" fill="#0D1117" transform="matrix(1.02222 0 0 1 598 273.001)"/><path d="M12.1268 21.6047C12.1268 22.5123 12.1268 23.4188 12.1268 24.3264 12.1268 24.9898 11.7957 25.3127 11.1229 25.3139 9.32251 25.3139 7.52211 25.3139 5.72172 25.3139 5.07828 25.3139 4.74716 24.984 4.74599 24.344 4.74599 22.5303 4.74599 20.7162 4.74599 18.9018 4.74599 18.2677 5.0818 17.9389 5.72642 17.9378 7.54012 17.9378 9.35421 17.9378 11.1687 17.9378 11.7804 17.9378 12.1186 18.2759 12.1221 18.8853 12.1315 19.7871 12.1268 20.6947 12.1268 21.6047ZM6.53307 19.7061 6.53307 23.5209 10.3491 23.5209 10.3491 19.7061Z" fill="#0D1117" transform="matrix(1.02222 0 0 1 598 273.001)"/><path d="M36.5166 25.3104C35.6243 25.3104 34.7319 25.3104 33.8395 25.3104 33.2031 25.3104 32.8732 24.9746 32.872 24.3323 32.872 22.5186 32.872 20.7045 32.872 18.89 32.872 18.2759 33.2078 17.9354 33.8113 17.9342 35.6407 17.9296 37.4697 17.9296 39.2982 17.9342 39.9053 17.9342 40.2376 18.2759 40.2434 18.89 40.2481 20.7029 40.2481 22.5167 40.2434 24.3311 40.2434 24.9734 39.9112 25.308 39.2759 25.3104 38.3624 25.3151 37.4407 25.3104 36.5166 25.3104ZM38.4611 23.5397 38.4611 19.7096 34.6544 19.7096 34.6544 23.5397Z" fill="#0D1117" transform="matrix(1.02222 0 0 1 598 273.001)"/><path d="M8.43875 36.0341C7.53229 36.0341 6.62466 36.0341 5.7182 36.0341 5.08063 36.0341 4.75068 35.6982 4.74951 35.056 4.74951 33.2415 4.74951 31.4274 4.74951 29.6137 4.74951 28.9984 5.08415 28.6591 5.68885 28.6568 7.5182 28.6521 9.34717 28.6521 11.1757 28.6568 11.784 28.6568 12.1209 28.9984 12.1221 29.6114 12.1268 31.4258 12.1268 33.2399 12.1221 35.0536 12.1221 35.6959 11.791 36.0305 11.1558 36.0341 10.2528 36.0376 9.34521 36.0341 8.43875 36.0341ZM6.53777 30.425 6.53777 34.2552 10.3444 34.2552 10.3444 30.425Z" fill="#0D1117" transform="matrix(1.02222 0 0 1 598 273.001)"/><path d="M17.2603 38.9965C17.7518 38.9913 18.1544 39.3855 18.1597 39.877 18.1597 39.8783 18.1597 39.8795 18.1597 39.8806 18.1619 40.3754 17.7627 40.7784 17.2679 40.7806 16.7731 40.7829 16.3701 40.3836 16.3679 39.8888 16.3679 39.396 16.7675 38.9965 17.2603 38.9965Z" fill="#0D1117" transform="matrix(1.02222 0 0 1 598 273.001)"/><path d="M40.2869 13.362C40.7711 13.3762 41.1521 13.7803 41.1379 14.2644 41.1244 14.7242 40.7582 15.0955 40.2986 15.1151 39.8146 15.1357 39.4056 14.7601 39.3849 14.2761 39.3642 13.7922 39.7398 13.3832 40.2238 13.3625 40.2449 13.3616 40.2659 13.3614 40.2869 13.362Z" fill="#0D1117" transform="matrix(1.02222 0 0 1 598 273.001)"/></g></svg>