<svg xmlns="http://www.w3.org/2000/svg" viewBox="0 0 383.25 383.24"><defs><style>.cls-1{fill:#fff;}</style></defs><g id="Layer_2" data-name="Layer 2"><g id="Layer_1-2" data-name="Layer 1"><path class="cls-1" d="M304.65,0h9.74a6.61,6.61,0,0,0,1.28.69c11,3,17.34,10.28,19.29,21.4a75.29,75.29,0,0,1,.56,7.87c3.77,0,7.25,0,10.73,0a37.2,37.2,0,0,1,37,36.9q.09,105.91-.1,211.83a11.33,11.33,0,0,1-2.84,7.28q-46.92,47.29-94.21,94.21a11.31,11.31,0,0,1-7.24,2.93q-120.88.22-241.76.11A37.16,37.16,0,0,1,1.4,355.94C1,354.55.47,353.19,0,351.81V61.38a5.58,5.58,0,0,0,.69-1.23c4-16.77,14.54-26.8,31.39-29.76,5-.88,10.34-.13,15.24-.13a7.35,7.35,0,0,0,.53-1.36c0-1.24,0-2.48.07-3.72.28-10.08,5-17.51,13.74-22.29A63.76,63.76,0,0,1,68.87,0h9c.68.27,1.35.59,2.05.8,10.24,3.1,16.45,9.94,18.57,20.36.56,2.74.35,5.64.5,8.53h67.14c0-1.6,0-3,0-4.31.28-11.76,7.14-20.9,18.36-24.5A16.38,16.38,0,0,0,186.39,0h9.73a13,13,0,0,0,1.66.75c10.76,3.1,17,10.28,19,21.19a58,58,0,0,1,.42,7.71h67.09c0-1.78-.05-3.26,0-4.74.34-9.77,4.86-17,13.31-21.83A75.12,75.12,0,0,1,304.65,0ZM15.11,332h99.22c1.25,0,2.5,0,3.74.06,4.66.37,7.68,3.4,7.62,7.58s-3.3,7.22-7.8,7.51c-1.12.07-2.24,0-3.36,0H15.17c1.76,13.36,10.69,21.06,23.92,21.07H272.48v-4.4c0-18.09,0-36.18,0-54.27a38.63,38.63,0,0,1,5.73-19.83,12.57,12.57,0,0,0,1.69-5.86c.16-10.6.05-21.2.09-31.81,0-5.06,2.85-8,7.76-8.06q23.76-.08,47.53,0c4.52,0,7.45,3,7.52,7.54.09,5.86,0,11.72,0,17.59,0,1.06.14,2.12.21,3.07h25.25v-3.12q0-100.3,0-200.61c0-14.07-9.71-23.59-23.89-23.63q-20.77-.06-41.54,0c-1.08,0-2.16.13-3.51.21V63.26a17.43,17.43,0,0,0,.08,2.61,10.5,10.5,0,0,0,6.33,8.21c5.08,2.35,13.59-.25,14.5-9.76.47-4.94,3.95-7.77,8.14-7.34s7.31,4.25,6.79,9.14c-1.12,10.56-6.4,18.36-16.45,22.11S299.56,90,291.81,82.57c-5.44-5.2-7.69-11.77-7.58-19.24.08-6.07,0-12.14,0-18.18H181.11c0,6.1,0,11.94,0,17.79,0,6.87,3.86,11.55,9.76,11.93s10.29-3.65,11.13-10.6c.36-3,1.48-5.66,4.31-6.38a11.67,11.67,0,0,1,7.32.57c3.32,1.57,3.66,5,3.34,8.46-1.05,11.35-10.38,21.28-21.45,22.8-12.16,1.67-23.76-4.9-27.71-16.21-1.23-3.55-1.47-7.54-1.64-11.35-.27-5.67-.07-11.37-.07-17H62.86c0,6.05,0,11.88,0,17.72,0,6.89,3.86,11.59,9.72,12,6,.45,10.38-3.73,11.26-10.86.05-.37,0-.75.1-1.12A7.73,7.73,0,0,1,91.6,57a7.47,7.47,0,0,1,7.14,6.86,20.08,20.08,0,0,1-.21,4.84C96.05,82.4,84.15,91.16,70,89.77c-12.32-1.21-22-12.44-22-25.63,0-6.32,0-12.64,0-19.17-4.28,0-8.14-.26-12,.05C24.42,46,15.44,54.69,15.12,66.2c-.43,15.58-.08,31.19,0,46.78,0,.19.25.39.55.81h287.6a40.17,40.17,0,0,1,4.11.06,7.47,7.47,0,0,1,0,14.82,37.72,37.72,0,0,1-4.12.06H15.11Zm272.37,24.13,68.62-68.6c-15.81,0-32.12-.57-48.38.19-11.39.53-19.82,9.68-20.13,20.92C287.16,324.62,287.48,340.57,287.48,356.17Zm7.58-80.66c10.61-4.86,21.74-2.25,32.56-3.23v-13H295.06ZM83.72,29.79c.47-5.81-.28-10.7-5.65-13.53A9.6,9.6,0,0,0,66.9,17.39c-4,3.23-4.52,7.63-3.74,12.4Zm97.64-.14h20.5c.58-9.2-3.63-15-10.6-14.62C185.6,15.32,179.72,19.88,181.36,29.65ZM320,29.77c.43-5.51-.1-10.24-5-13.19a9.67,9.67,0,0,0-11,.18c-4.68,3.09-5.31,7.73-4.49,13Z"/><path class="cls-1" d="M151.53,215.56c-7.6,0-15.2,0-22.8,0-5.55,0-8.43-2.61-8.47-8.15q-.18-23.35,0-46.72c0-5.32,3-7.95,8.26-8q23.17,0,46.35,0c5.3,0,8.35,3,8.38,8.32q.11,23,0,46c0,5.6-3,8.51-8.55,8.54C167,215.59,159.26,215.56,151.53,215.56Zm16.33-47.65H135.68v32.54h32.18Z"/><path class="cls-1" d="M231.62,152.72c7.73,0,15.45,0,23.18,0,5.13,0,8.1,2.58,8.15,7.67q.23,23.73,0,47.46c-.05,5.1-3,7.68-8.14,7.69q-23.35.06-46.72,0c-4.88,0-8-3-8.07-7.86q-.17-23.55,0-47.09c0-4.91,3.17-7.83,8.06-7.87C215.92,152.68,223.77,152.72,231.62,152.72Zm-16.17,15.11v32.5h32.21v-32.5Z"/><path class="cls-1" d="M151.6,306.89c-7.47,0-14.95,0-22.42,0-6.05,0-8.9-2.55-8.94-8.45q-.15-23,0-46c0-5.78,2.86-8.41,8.59-8.41q23,0,46,0c5.33,0,8.42,2.92,8.44,8.25q.12,23.18,0,46.35c0,5.32-3.12,8.2-8.47,8.23C167.05,306.91,159.33,306.89,151.6,306.89Zm-16.06-15.08h32.33V259.2H135.54Z"/><path class="cls-1" d="M231.63,244c7.72,0,15.45,0,23.17,0,5.14,0,8.1,2.58,8.15,7.67q.23,23.73,0,47.47c-.05,5.09-3,7.67-8.14,7.68q-23.37.06-46.72,0c-4.88,0-8-3-8.07-7.86q-.17-23.55,0-47.1c0-4.9,3.18-7.82,8.06-7.86C215.93,244,223.78,244,231.63,244Zm16,47.75V259.13H215.37v32.66Z"/><path class="cls-1" d="M103.28,184c0,7.73,0,15.45,0,23.18,0,5.65-2.82,8.4-8.55,8.41q-23,0-46,0c-5.48,0-8.3-2.81-8.31-8.26q0-23.17,0-46.35c0-5.4,2.86-8.2,8.35-8.21q23.17,0,46.35,0c5.21,0,8.09,2.88,8.12,8.07C103.32,168.52,103.28,176.25,103.28,184ZM55.64,167.83v32.49h32.5V167.83Z"/><path class="cls-1" d="M311,215.56c-7.6,0-15.2,0-22.8,0-5.42,0-8.23-2.86-8.24-8.33q0-23.17,0-46.35c0-5.23,2.86-8.13,8-8.14q23.37-.06,46.73,0c5.17,0,8,2.91,8.05,8.14q.06,23.16,0,46.34c0,5.47-2.83,8.32-8.24,8.34C326.72,215.6,318.87,215.56,311,215.56Zm16.56-15.08V167.86H295.14v32.62Z"/><path class="cls-1" d="M71.87,306.89c-7.72,0-15.45,0-23.17,0-5.43,0-8.24-2.86-8.25-8.33q0-23.18,0-46.35c0-5.24,2.85-8.13,8-8.15q23.37-.06,46.73,0c5.18,0,8.05,2.91,8.06,8.13q.06,23.18,0,46.35c0,5.47-2.82,8.32-8.23,8.35C87.32,306.92,79.59,306.89,71.87,306.89ZM55.68,259.12v32.62H88.1V259.12Z"/><path class="cls-1" d="M147,332.12a7.58,7.58,0,0,1,7.66,7.53,7.63,7.63,0,0,1-15.26.07A7.6,7.6,0,0,1,147,332.12Z"/><path class="cls-1" d="M343.11,113.8a7.47,7.47,0,0,1,.1,14.93,7.47,7.47,0,1,1-.1-14.93Z"/></g></g></svg>