<svg xmlns="http://www.w3.org/2000/svg" viewBox="0 0 383.46 383.41"><defs><style>.cls-1{fill:#fff;}</style></defs><g id="Layer_2" data-name="Layer 2"><g id="Layer_1-2" data-name="Layer 1"><path class="cls-1" d="M0,149.1c1.78-1.88,3.35-4,5.37-5.58Q95.57,73,185.84,2.6c4.45-3.47,7.21-3.48,11.75,0q37.32,29.1,74.62,58.22c1.37,1.07,2.75,2.11,4.84,3.72V59c0-7.61,0-15.22,0-22.83,0-5.47,2.85-8.31,8.29-8.32q20.77,0,41.55,0c5.72,0,8.5,2.78,8.51,8.47,0,23.45.05,46.91-.06,70.36a6.58,6.58,0,0,0,2.95,5.88Q358.76,128.3,379,144.29c5.63,4.41,5.88,8.68.83,13.77-7.64,7.7-15.46,15.24-23,23.07-4.05,4.23-8.14,6.59-14,2.51v35.65c0,7.48,0,15,0,22.45,0,5.18-2.91,8.39-7.46,8.39s-7.46-3.2-7.47-8.38c0-22.33,0-44.66-.11-67a7,7,0,0,0-2.32-4.9q-66-51.71-132.07-103.21c-.49-.38-1-.72-1.83-1.3L172.86,80Q115.5,124.74,58.12,169.47c-1.78,1.39-2.79,2.72-2.79,5.19q.12,95.25.06,190.5v3.09h21v-3.88q0-32.94,0-65.87c0-4.2,2.43-7.21,6.08-7.83a7.33,7.33,0,0,1,8.35,4.77,14,14,0,0,1,.48,4.4q0,32,0,64v4.34H328v-4q0-32.19,0-64.37c0-5.24,2.82-8.44,7.36-8.49s7.57,3.15,7.57,8.27q0,32.19,0,64.38v4.45h24.14c2.75,0,5.5,0,8.24,0,4.1.05,7.12,2.11,7.86,5.57a7.36,7.36,0,0,1-3.81,8.55c-.42.25-.81.55-1.22.83H0v-9.74c2-4.07,5.27-5.44,9.77-5.3,8.22.26,16.45.08,24.68.08h5.8V184.06C33.7,186.92,32,186.58,27,181.51c-5.9-5.91-11.86-11.76-17.7-17.74C6.06,160.49,3.08,157,0,153.59Zm35.44,18.83c.8-.57,1.62-1.11,2.4-1.72L185,51.35c5.6-4.37,7.8-4.37,13.5.07q70.32,54.9,140.65,109.79c3,2.35,6,4.66,8.12,6.27,5.71-5.67,10.95-10.89,16.26-16.18L191.7,17.19,19.29,151.76Zm257-125.06a7.54,7.54,0,0,0-.42,1.7c0,10-.09,19.94.07,29.91A5.57,5.57,0,0,0,294.23,78c4.42,3.65,9,7.11,13.52,10.63l12.45,9.63V42.87Z"/><path class="cls-1" d="M271,242.8q0,35,0,70c0,6.74-2.5,9.24-9.24,9.25H121.47c-6.65,0-9.14-2.55-9.14-9.32q0-70,0-139.92c0-7,2.45-9.42,9.42-9.43H261.69c6.93,0,9.34,2.46,9.34,9.51Q271,207.82,271,242.8ZM127.48,178.45V235h56.46V178.45Zm71.94,0V234.9h56.46V178.44ZM127.35,306.83h56.59V250.45H127.35Zm72,0h56.53V250.41H199.32Z"/><path class="cls-1" d="M76.39,268.47a7.47,7.47,0,1,1,14.94,0,7.47,7.47,0,1,1-14.94,0Z"/><path class="cls-1" d="M335.54,265.15A7.47,7.47,0,1,1,328,272.6,7.36,7.36,0,0,1,335.54,265.15Z"/></g></g></svg>