<svg xmlns="http://www.w3.org/2000/svg" viewBox="0 0 383.34 383.29"><defs><style>.cls-1{fill:#fff;}</style></defs><g id="Layer_2" data-name="Layer 2"><g id="Layer_1-2" data-name="Layer 1"><path class="cls-1" d="M0,168.44a68.59,68.59,0,0,1,2.89-6.35,21.78,21.78,0,0,1,19.27-11.52c6.85-.2,13.72-.14,20.58,0,2.3,0,3.35-.53,4.26-2.89q5.36-13.9,11.43-27.52c1-2.17.63-3.28-.91-4.77-4.75-4.6-9.41-9.29-14-14-9.34-9.52-9.46-22.92-.14-32.45Q56,55.93,69,43.26c9.59-9.33,22.89-9.2,32.47.16q7.1,6.93,14,14c1.5,1.56,2.61,1.86,4.77.91q13.63-6,27.54-11.42c2.11-.82,2.88-1.68,2.83-3.93-.14-6.61-.09-13.22,0-19.83C150.7,9.77,160.39.06,173.72,0Q191.87,0,210,0a22.41,22.41,0,0,1,22.71,22.43q.2,10.29,0,20.58c0,2.26.76,3.08,2.86,3.9q13.89,5.41,27.52,11.44c2.18,1,3.28.61,4.78-.93,4.59-4.75,9.28-9.41,14-14,9.43-9.24,22.71-9.52,32.19-.39q13.33,12.84,26.2,26.19c9,9.34,8.85,22.56-.15,31.91-4.67,4.86-9.46,9.6-14.3,14.28-1.57,1.51-1.83,2.63-.88,4.78q6,13.62,11.44,27.52c.81,2.08,1.62,2.91,3.89,2.87,6.74-.15,13.47-.11,20.21,0,13.17.13,22.81,9.83,22.85,23,0,11.85,0,23.7,0,35.55,0,13.67-9.44,23.31-23.14,23.55q-9.92.18-19.83,0c-2.22,0-3.11.69-3.94,2.83Q331,249.34,325,263c-.93,2.11-.77,3.24.83,4.79,4.78,4.57,9.44,9.26,14.06,14,9.36,9.56,9.54,22.83.22,32.47q-12.75,13.17-25.93,25.93c-9.46,9.13-22.74,8.89-32.19-.33-4.82-4.7-9.62-9.44-14.28-14.3-1.5-1.57-2.61-1.49-4.49-.67-9.23,4-18.51,7.91-27.87,11.58-2,.79-2.67,1.6-2.63,3.67.12,6.35.06,12.72,0,19.08,0,11.91-5.58,19.49-17.06,23.41-.32.11-.55.45-.82.68H168.46c-.27-.23-.5-.57-.81-.68-11.65-4-17.05-11.47-17.07-23.76,0-6.11-.16-12.22.08-18.32.1-2.7-1-3.48-3.32-4.36-8.8-3.39-17.61-6.81-26.15-10.79-3-1.39-4.51-1-6.58,1.16-4.36,4.62-8.89,9.09-13.46,13.51-9.28,9-22.61,9.16-31.9.19q-13.32-12.86-26.18-26.18c-9.13-9.44-8.93-22.75.27-32.16,4.71-4.81,9.45-9.59,14.3-14.25,1.51-1.45,1.63-2.53.78-4.48q-6-13.81-11.56-27.84c-.77-2-1.53-2.73-3.64-2.7q-10.09.19-20.2,0c-10.77-.2-18.76-6.13-22.2-16.25A10,10,0,0,0,0,214.85ZM191.72,368.33h16.09c7.13,0,9.78-2.59,9.82-9.63,0-8.48,0-17,0-25.45,0-5.94,1.65-8.14,7.34-9.55a136.1,136.1,0,0,0,36.76-15.25c4.77-2.83,7.72-2.44,11.68,1.48,6.11,6.06,12.17,12.18,18.27,18.25,4.82,4.79,8.35,4.81,13.11.07q11.79-11.76,23.55-23.56c4.78-4.8,4.79-8.31,0-13.14-6-6-12-12-18-18-4.32-4.34-4.71-7.06-1.65-12.25a134.05,134.05,0,0,0,14.92-36.08c1.5-6.05,3.78-7.76,10.05-7.78,8.61,0,17.21,0,25.82,0,6.16-.05,8.84-2.8,8.85-9q.06-16.65,0-33.3c0-6.83-2.72-9.56-9.53-9.59-8.6,0-17.21,0-25.82,0-5.7,0-7.88-1.61-9.27-7.17a136.85,136.85,0,0,0-15.24-36.76c-2.84-4.8-2.45-7.72,1.47-11.67,6.15-6.19,12.36-12.33,18.51-18.54,4.44-4.48,4.46-8.16.08-12.56q-12-12.07-24.09-24.08c-4.47-4.44-8.11-4.47-12.59,0-6.22,6.14-12.35,12.36-18.55,18.51-4,4-6.9,4.4-11.66,1.58a136.41,136.41,0,0,0-36.77-15.22c-5.65-1.4-7.24-3.62-7.26-9.62,0-8.48,0-17,0-25.44,0-6.89-2.7-9.53-9.53-9.54q-16.28,0-32.56,0c-7.28,0-9.81,2.56-9.83,10,0,8.49,0,17,0,25.45,0,5.49-1.7,7.74-7,9.08a140.23,140.23,0,0,0-37.12,15.35c-4.68,2.76-7.58,2.36-11.38-1.4C104.12,67.36,98.06,61.25,92,55.17c-5-5-8.48-5-13.41-.12Q66.75,66.8,55,78.59c-4.63,4.65-4.66,8.23-.08,12.83,6.24,6.29,12.55,12.5,18.77,18.8,3.45,3.5,3.94,6.69,1.49,10.78a140.82,140.82,0,0,0-15.73,37.78c-1.31,5.11-3.54,6.71-8.82,6.74-8.61,0-17.21,0-25.82,0-7.12,0-9.81,2.68-9.83,9.67q0,16.47,0,32.93c0,6.63,2.6,9.24,9.3,9.28,8.48.05,17,0,25.45,0,6.13,0,8.44,1.7,9.87,7.49A137.24,137.24,0,0,0,74.83,261.7c2.74,4.64,2.36,7.58-1.4,11.38-6.05,6.12-12.18,12.17-18.25,18.27-5,5-5,8.46-.12,13.4q11.75,11.81,23.54,23.56c4.64,4.62,8.23,4.65,12.84.08,5.94-5.88,11.83-11.81,17.74-17.72,4.88-4.87,7.31-5.22,13.14-1.8a135.2,135.2,0,0,0,35.77,14.73c5.93,1.48,7.58,3.65,7.61,9.75,0,8.6,0,17.21,0,25.82.06,6.4,2.81,9.11,9.15,9.15C180.49,368.36,186.1,368.33,191.72,368.33Z"/><path class="cls-1" d="M191.5,291.93c-49-.05-90.41-35.19-98.74-83.81-9.34-54.5,27.79-106.35,82.54-115.37a99.6,99.6,0,0,1,58,7.61c3,1.34,5.35,3.16,5.7,6.73.59,6.14-5,9.61-11.18,7.44-7.37-2.57-14.78-5.45-22.41-6.78-43-7.53-85.16,19.82-96.17,62-12.49,47.83,17.17,95.42,65.79,105.59,46.07,9.63,92.85-22.45,100.62-68.75a85.62,85.62,0,0,0-7.93-53.37c-1.49-3-1.87-6,.18-8.81,1.87-2.59,4.7-3.86,7.54-2.74a11.49,11.49,0,0,1,5.65,4.8,94.22,94.22,0,0,1,10.62,52.41c-3,34-19.15,60.28-48,78.58C228.8,286.89,210.09,292,191.5,291.93Z"/><path class="cls-1" d="M191.62,259.76c-6.45-1.2-13-2.14-19.34-3.68-5.82-1.39-8.16-5-6.92-9.56,1.3-4.76,5.21-6.46,11.07-4.81,29.11,8.21,58-7.86,65.8-36.62,7.68-28.23-10.25-58.17-38.56-64.38-29.76-6.52-58.57,12.44-63.61,41.86a53.92,53.92,0,0,0,1.78,25.1c1.09,3.6.2,6.69-3,8.84a6.74,6.74,0,0,1-8.65-.4,9.89,9.89,0,0,1-2.78-4.28c-13-38.86,14-81.6,54.81-86.85,36.47-4.7,68.74,18.48,75.8,54.46,7.24,36.93-19.22,73.83-56.58,78.86-3.2.43-6.43.64-9.65.95Z"/><path class="cls-1" d="M265,126.23a7.51,7.51,0,0,1-7.44,7.68,8.09,8.09,0,0,1-7.78-7.94,7.69,7.69,0,0,1,7.3-7.52A8,8,0,0,1,265,126.23Z"/><path class="cls-1" d="M157.14,234a7.75,7.75,0,0,1-7.56,7.71,8.1,8.1,0,0,1-7.81-7.6,7.81,7.81,0,0,1,7.56-7.73A8.13,8.13,0,0,1,157.14,234Z"/></g></g></svg>