<svg xmlns="http://www.w3.org/2000/svg" viewBox="0 0 343.23 383.27"><defs><style>.cls-1{fill:#fff;}</style></defs><g id="Layer_2" data-name="Layer 2"><g id="Layer_1-2" data-name="Layer 1"><path class="cls-1" d="M173.76,0c5.61,4.54,11.17,9.14,16.83,13.61A294.77,294.77,0,0,0,316.81,72c6.34,1.28,12.68,2.53,19,3.89C341.05,77,343,79.36,343,84.71c0,22.58.69,45.19-.29,67.72-2.3,53.27-20.36,100.88-53.58,142.65-19,23.89-42,43.1-68.13,58.85-14.93,9-29.65,18.36-44.42,27.62-3.16,2-6.23,2.42-9.45.4-20.67-13-41.89-25.22-61.87-39.2-54-37.77-87.41-89.39-100.69-154A231.26,231.26,0,0,1,0,141.25c.07-18.58,0-37.17,0-55.75,0-6.45,1.91-8.73,8.25-9.83,38.05-6.62,74.46-17.91,108-37.47A308.15,308.15,0,0,0,164.82,3.36c1.39-1.23,3-2.25,4.45-3.36ZM15,89.56v4.22c0,16-.46,32,.14,47.9.52,13.54,1.28,27.2,3.64,40.51,10.62,59.89,40.58,108.28,89.58,144.18,19.56,14.32,40.8,26.33,61.37,39.25,1,.61,3.09.34,4.18-.33,15.92-9.79,31.83-19.6,47.6-29.63a226.6,226.6,0,0,0,76.83-80.72c17.05-30.17,27-62.57,28.85-97.19.92-17.3.58-34.66.77-52,.06-5.23,0-10.46,0-16.16-28.77-5.07-56.57-12.88-83.06-25.07a319.08,319.08,0,0,1-73.45-47C126,56.4,73.66,79.83,15,89.56Z"/><path class="cls-1" d="M47.75,116.21c-4.13,56.73,8.29,108.86,46,153.38a197.87,197.87,0,0,0,46.63,40.05c9.51,5.94,19,11.87,28.62,17.66,1.14.69,3.28,1.14,4.22.55,18-11.38,37-21.28,53.06-35.5,8.37-7.43,15.88-15.83,23.85-23.7,1.65-1.62,3.45-3.47,5.53-4.16,3.19-1.06,6.16.15,8.08,3.13,2.12,3.3,1.64,6.52-.87,9.27-6.06,6.62-11.78,13.67-18.53,19.51a367.81,367.81,0,0,1-31.22,24.31c-11.76,8.15-24.24,15.27-36.37,22.88-3,1.86-6,2.73-9.1.73-18.41-11.9-37.68-22.69-54.95-36.07C70,275.2,44.37,231.38,35.37,178.13c-1.92-11.37-2.46-23-3-34.57-.49-11.08-.13-22.19-.1-33.3,0-4.44,2-7.07,6.09-8.25q23.26-6.75,46.51-13.57c4.57-1.35,8.73.37,10.15,4.34s-.38,8.25-5,9.78C76,107.23,61.93,111.66,47.75,116.21Z"/><path class="cls-1" d="M157.79,186.23a34.21,34.21,0,0,1,2.71-3.66q23.64-23.7,47.34-47.36c7.76-7.74,16.11-7.76,23.87-.07,4.7,4.65,9.4,9.29,14,14,6.65,6.83,6.76,15.55.06,22.28q-41.06,41.2-82.26,82.28c-4.37,4.36-8.26,4.33-12.64,0Q124.14,227,97.45,200.25c-6.89-6.92-6.86-15.61,0-22.51q7.23-7.32,14.54-14.56c7.07-7,15.67-7,22.79,0C142.18,170.53,149.54,178,157.79,186.23ZM219,144.7a33.14,33.14,0,0,1-2.42,3.05q-26.3,26.35-52.64,52.66c-4.69,4.68-8.51,4.69-13.15.1q-6.1-6.06-12.17-12.17c-5-5-10-10-14.72-14.75L108.4,189.06,157,237.71l77.54-77.52Z"/><path class="cls-1" d="M295.79,116.14c-12.63-3.9-25-7.29-37-11.5a324.06,324.06,0,0,1-84-44.07c-2.46-1.79-3.93-1.72-6.41,0-8.6,5.93-17.45,11.54-26.22,17.23a7.25,7.25,0,0,1-8.74-.06c-2.47-1.75-3.71-4.32-2.89-7.15A10.39,10.39,0,0,1,134,65.23c10.84-7.54,21.85-14.82,32.82-22.17,3.76-2.52,6.17-2.12,10.59.78,13.43,8.79,26.59,18.09,40.54,26,26.68,15.13,55.36,25.3,85.3,32,5.81,1.29,7.55,3.46,7.47,9.31-.2,16.45,0,32.93-.84,49.36-1,20-5.87,39.33-13,58-1.71,4.5-5.88,6.4-9.89,4.84s-5.56-5.52-4.2-10.23c3.15-10.85,6.69-21.63,9.18-32.64,3.58-15.87,4-32.1,3.84-48.34C295.73,126.68,295.79,121.21,295.79,116.14Z"/><path class="cls-1" d="M275.32,252.8c-4.1-.36-7.49-4.26-7.09-8.17.41-4.11,4.25-7.5,8.15-7.2a7.74,7.74,0,0,1,7.05,8.16C283,249.75,279.22,253.13,275.32,252.8Z"/><path class="cls-1" d="M113.33,77.09a7.38,7.38,0,0,1,7.57,7.48A7.49,7.49,0,0,1,113.24,92a7.47,7.47,0,1,1,.09-14.94Z"/></g></g></svg>