<svg width="41" height="45" xmlns="http://www.w3.org/2000/svg" xmlns:xlink="http://www.w3.org/1999/xlink" xml:space="preserve" overflow="hidden"><defs><clipPath id="clip0"><rect x="852" y="273" width="41" height="45"/></clipPath></defs><g clip-path="url(#clip0)" transform="translate(-852 -273)"><path d="M20.4013 0C21.06 0.533045 21.7128 1.07313 22.3773 1.59796 26.6997 5.03243 31.781 7.38306 37.1969 8.45357 37.9413 8.60386 38.6857 8.75062 39.4277 8.9103 40.0429 9.04062 40.2719 9.31771 40.2719 9.94586 40.2719 12.597 40.3529 15.2516 40.2378 17.8969 39.9678 24.1514 37.8473 29.7413 33.947 34.6455 31.7162 37.4505 29.0157 39.706 25.9478 41.5552 24.1948 42.6119 22.4665 43.7108 20.7324 44.7981 20.3614 45.0329 20.0009 45.0822 19.6229 44.845 17.196 43.3187 14.7045 41.8839 12.3587 40.2425 6.01847 35.8079 2.09578 29.7472 0.536567 22.1613 0.165879 20.3258-0.013934 18.4568 2.01548e-08 16.5843 0.00821875 14.4028 0 12.2201 0 10.0386 0 9.28132 0.224254 9.01362 0.968638 8.88447 5.43612 8.10721 9.71104 6.78164 13.649 4.48509 15.678 3.30957 17.5878 1.9396 19.3516 0.3945 19.5148 0.250085 19.7039 0.130326 19.8741 0ZM1.76116 10.5153 1.76116 11.0108C1.76116 12.8893 1.70715 14.7679 1.7776 16.6347 1.83865 18.2245 1.92788 19.8283 2.20497 21.3911 3.45187 28.4228 6.9695 34.1043 12.7226 38.3193 15.0192 40.0007 17.513 41.4108 19.9281 42.9277 20.0455 42.9993 20.2909 42.9676 20.4189 42.889 22.2881 41.7395 24.1561 40.5877 26.0076 39.4101 29.7566 37.0511 32.8573 33.7935 35.0283 29.9327 37.0302 26.3904 38.1984 22.5863 38.4156 18.5215 38.5236 16.4903 38.4837 14.4521 38.506 12.4162 38.5131 11.8021 38.506 11.1881 38.506 10.5188 35.1281 9.92355 31.8641 9.00657 28.7539 7.57534 25.6403 6.13922 22.7386 4.28245 20.1301 2.05704 14.7937 6.62196 8.64847 9.3729 1.76116 10.5153Z" fill="#0D1117" transform="matrix(1.01736 0 0 1 852.001 273)"/><path d="M5.60636 13.6443C5.12145 20.305 6.5797 26.4256 11.0073 31.6528 12.5761 33.4959 14.4233 35.0824 16.4821 36.3551 17.5987 37.0525 18.7129 37.7487 19.8424 38.4285 19.9763 38.5095 20.2275 38.5624 20.3379 38.4931 22.4513 37.157 24.6821 35.9946 26.5677 34.325 27.5504 33.4527 28.4322 32.4664 29.3679 31.5424 29.5617 31.3522 29.773 31.135 30.0172 31.054 30.3918 30.9295 30.7405 31.0716 30.9659 31.4215 31.2148 31.8089 31.1585 32.187 30.8638 32.5099 30.1522 33.2871 29.4807 34.1149 28.6881 34.8005 27.5184 35.8171 26.2947 36.7699 25.0226 37.6548 23.6418 38.6117 22.1765 39.4477 20.7523 40.3411 20.4001 40.5595 20.0479 40.6617 19.6839 40.4269 17.5224 39.0297 15.2599 37.7628 13.2322 36.1918 8.21875 32.3114 5.20951 27.1665 4.15282 20.9144 3.92739 19.5794 3.86399 18.2139 3.80058 16.8555 3.74305 15.5546 3.78532 14.2501 3.78884 12.9457 3.78884 12.4244 4.02366 12.1156 4.50387 11.9771 6.32453 11.4487 8.14478 10.9176 9.96465 10.3838 10.5012 10.2253 10.9896 10.4272 11.1564 10.8934 11.3231 11.3595 11.1117 11.862 10.5693 12.0416 8.92321 12.59 7.27125 13.1101 5.60636 13.6443Z" fill="#0D1117" transform="matrix(1.01736 0 0 1 852.001 273)"/><path d="M18.5262 21.8654C18.6226 21.7152 18.7289 21.5716 18.8444 21.4357 20.6948 19.5806 22.5476 17.727 24.4026 15.8751 25.3137 14.9663 26.2941 14.964 27.2052 15.8669 27.7571 16.4128 28.3089 16.9576 28.849 17.5106 29.6298 18.3125 29.6427 19.3364 28.856 20.1265 25.6421 23.3515 22.4227 26.5716 19.1978 29.7871 18.6847 30.299 18.228 30.2955 17.7138 29.7871 15.6215 27.6972 13.5308 25.6053 11.4417 23.5115 10.6327 22.699 10.6362 21.6787 11.4417 20.8686 12.0076 20.2956 12.5767 19.7258 13.1488 19.1591 13.9789 18.3372 14.9887 18.3372 15.8246 19.1591 16.6935 20.022 17.5576 20.8991 18.5262 21.8654ZM25.7129 16.9893C25.6254 17.1141 25.5305 17.2338 25.4288 17.3474 23.3702 19.41 21.31 21.4709 19.2483 23.5303 18.6977 24.0798 18.2491 24.0809 17.7044 23.542 17.2269 23.0677 16.7506 22.5913 16.2755 22.1131 15.6884 21.5261 15.1014 20.939 14.5472 20.3813L12.7273 22.1977 18.4335 27.9097 27.5375 18.808Z" fill="#0D1117" transform="matrix(1.01736 0 0 1 852.001 273)"/><path d="M34.7289 13.6361C33.246 13.1782 31.7936 12.7802 30.3847 12.2859 26.8612 11.0542 23.5381 9.31075 20.5222 7.11157 20.2334 6.9014 20.0608 6.90962 19.7696 7.11157 18.7599 7.80781 17.7208 8.46649 16.6911 9.13455 16.386 9.36182 15.9669 9.35895 15.6649 9.12751 15.3749 8.92204 15.2293 8.62029 15.3256 8.28802 15.392 8.04068 15.5345 7.8205 15.733 7.6587 17.0058 6.77342 18.2985 5.91867 19.5865 5.05571 20.0279 4.75983 20.3109 4.80679 20.8298 5.14729 22.4067 6.17933 23.9518 7.27125 25.5897 8.19996 28.7222 9.97639 32.0895 11.1705 35.6048 11.9571 36.287 12.1086 36.4912 12.3633 36.4819 13.0502 36.4584 14.9816 36.4819 16.9165 36.3832 18.8456 36.2658 21.1938 35.694 23.4634 34.8569 25.6554 34.6561 26.1838 34.1665 26.4068 33.6957 26.2237 33.2249 26.0405 33.0429 25.5756 33.2026 25.0226 33.5724 23.7487 33.9881 22.483 34.2804 21.1903 34.7007 19.327 34.75 17.4214 34.7313 15.5147 34.7219 14.8736 34.7289 14.2314 34.7289 13.6361Z" fill="#0D1117" transform="matrix(1.01736 0 0 1 852.001 273)"/><path d="M32.3255 29.6814C31.8441 29.6392 31.4461 29.1813 31.4931 28.7222 31.5412 28.2396 31.9921 27.8416 32.45 27.8768 32.9396 27.9198 33.3062 28.3442 33.2777 28.8349 33.2272 29.3233 32.7834 29.7202 32.3255 29.6814Z" fill="#0D1117" transform="matrix(1.01736 0 0 1 852.001 273)"/><path d="M13.3062 9.05119C13.7846 9.03883 14.1824 9.41661 14.1947 9.895 14.1951 9.90647 14.1951 9.91795 14.195 9.92942 14.1912 10.4151 13.7945 10.8058 13.3087 10.802 13.3044 10.8019 13.2999 10.8019 13.2956 10.8018 12.8112 10.7989 12.4209 10.4038 12.4238 9.91944 12.4267 9.43505 12.8217 9.04475 13.3062 9.04767Z" fill="#0D1117" transform="matrix(1.01736 0 0 1 852.001 273)"/></g></svg>