<svg width="45" height="45" xmlns="http://www.w3.org/2000/svg" xmlns:xlink="http://www.w3.org/1999/xlink" xml:space="preserve" overflow="hidden"><defs><clipPath id="clip0"><rect x="933" y="273" width="45" height="45"/></clipPath></defs><g clip-path="url(#clip0)" transform="translate(-933 -273)"><path d="M977.998 317.378C977.763 317.83 977.411 318 976.894 317.999 962.63 317.989 948.366 317.987 934.102 317.992 933.439 317.992 933.066 317.729 933.009 317.226 932.946 316.671 933.33 316.246 933.92 316.24 934.768 316.231 935.615 316.24 936.518 316.24L936.518 300.498C936.518 299.641 936.793 299.366 937.643 299.366 940.513 299.366 943.383 299.366 946.253 299.366 947.141 299.366 947.413 299.634 947.413 300.508 947.413 305.575 947.413 310.642 947.413 315.71L947.413 316.212 950.054 316.212 950.054 290.553C950.054 289.576 950.301 289.321 951.261 289.321 954.086 289.321 956.912 289.321 959.739 289.321 960.698 289.321 960.947 289.577 960.947 290.552L960.947 316.217 963.587 316.217 963.587 303.453C963.587 303.321 963.58 303.189 963.587 303.058 963.637 302.577 964.068 302.227 964.549 302.277 964.962 302.319 965.288 302.646 965.331 303.058 965.348 303.247 965.331 303.439 965.331 303.629L965.331 316.21 972.692 316.21 972.692 282.702 965.331 282.702 965.331 294.265C965.331 294.396 965.331 294.528 965.331 294.659 965.309 295.142 964.899 295.515 964.417 295.492 963.969 295.471 963.609 295.115 963.584 294.668 963.57 294.42 963.584 294.17 963.584 293.921 963.584 289.953 963.584 285.984 963.584 282.015 963.584 281.193 963.872 280.912 964.693 280.911L973.391 280.911C974.183 280.911 974.477 281.204 974.477 281.994 974.477 293.197 974.477 304.401 974.477 315.604L974.477 316.238C975.277 316.238 976.063 316.262 976.845 316.23 977.374 316.208 977.757 316.374 977.993 316.852ZM959.183 291.128 951.837 291.128 951.837 316.204 959.183 316.204ZM938.292 316.204 945.622 316.204 945.622 301.145 938.292 301.145Z" fill="#0D1117"/><path d="M969.21 273C969.859 273.525 969.915 273.822 969.527 274.573 968.881 275.801 968.236 277.039 967.588 278.258 967.304 278.791 966.819 278.969 966.348 278.728 965.906 278.506 965.743 278.012 965.975 277.528 966.188 277.082 966.429 276.648 966.72 276.09 966.457 276.217 966.294 276.29 966.133 276.371L943.62 287.978C943.516 288.031 943.414 288.087 943.305 288.132 942.828 288.33 942.357 288.178 942.131 287.759 941.901 287.339 942.054 286.811 942.474 286.58 942.488 286.573 942.502 286.566 942.517 286.559 943.381 286.097 944.255 285.658 945.125 285.21 951.672 281.836 958.217 278.461 964.763 275.086 964.927 275.012 965.072 274.901 965.186 274.761L964.539 274.761C963.852 274.761 963.558 274.604 963.402 274.16 963.246 273.716 963.386 273.419 963.936 273Z" fill="#0D1117"/><path d="M964.482 299.812C964.01 299.834 963.61 299.468 963.589 298.996 963.588 298.98 963.588 298.964 963.588 298.948 963.592 298.464 963.989 298.075 964.473 298.079 964.937 298.084 965.317 298.448 965.341 298.912 965.365 299.384 965.003 299.786 964.531 299.811 964.514 299.812 964.498 299.812 964.482 299.812Z" fill="#0D1117"/><path d="M939.874 289.788C939.388 289.776 939.004 289.371 939.016 288.885 939.029 288.399 939.433 288.015 939.92 288.027 940.406 288.04 940.79 288.445 940.777 288.931 940.765 289.417 940.36 289.801 939.874 289.788Z" fill="#0D1117"/></g></svg>