<svg width="46" height="45" xmlns="http://www.w3.org/2000/svg" xmlns:xlink="http://www.w3.org/1999/xlink" xml:space="preserve" overflow="hidden"><defs><clipPath id="clip0"><rect x="259" y="273" width="46" height="45"/></clipPath></defs><g clip-path="url(#clip0)" transform="translate(-259 -273)"><path d="M6.49846 0C7.80778 0.332021 8.90122 0.986677 9.64269 2.14582 11.3673 4.84422 10.0744 8.3545 7.00529 9.32827 6.78121 9.39983 6.51489 9.39279 6.52075 9.76705 6.52779 10.3138 6.52075 10.3325 7.07099 10.3325 8.03655 10.3325 9.00328 10.3325 9.96884 10.3325 10.5625 10.3325 10.986 10.7326 10.9719 11.257 10.9579 11.7815 10.5508 12.1416 9.97471 12.1452 8.97982 12.1452 7.98024 12.1557 6.98887 12.1452 6.66506 12.1452 6.51958 12.2097 6.51958 12.5793 6.53366 15.4333 6.53366 18.2881 6.51958 21.1438 6.51958 21.5556 6.70847 21.5825 7.02876 21.5814 10.7314 21.5759 14.4341 21.5759 18.1368 21.5814 18.8196 21.5814 19.1927 21.9333 19.1716 22.5434 19.1669 22.9876 18.8237 23.3547 18.3808 23.3893 18.1931 23.4081 18.0007 23.4022 17.8106 23.4022L7.14139 23.4022C6.52897 23.4022 6.52897 23.4022 6.52897 24.0334 6.52897 24.5027 6.53835 24.972 6.52897 25.4413 6.52193 25.7076 6.62634 25.805 6.89032 25.8003 7.53441 25.7897 8.18086 25.8003 8.82261 25.8003 14.2523 25.8003 19.6819 25.8073 25.1116 25.7862 25.5595 25.7767 25.9995 25.6648 26.3974 25.4589 26.977 25.1573 27.1858 24.5672 27.1882 23.9337 27.1964 20.6264 27.2023 17.3179 27.1882 14.0106 27.1823 12.8561 26.4315 12.1557 25.2465 12.1522 22.642 12.1452 20.0371 12.1452 17.4317 12.1522 17.0222 12.1522 16.7207 12.0044 16.5342 11.6442 16.3759 11.3533 16.4002 10.9971 16.5964 10.7303 16.8028 10.4194 17.1044 10.3278 17.4681 10.329 19.9119 10.3361 22.3569 10.329 24.8007 10.3372 25.3239 10.3372 25.866 10.3208 26.3681 10.4428 27.9331 10.8239 29.028 12.2346 29.009 13.8452 29.009 15.0888 29.0254 16.3336 29.002 17.5772 28.9938 17.9737 29.1299 18.0688 29.5065 18.0664 32.1697 18.0523 34.8341 18.0664 37.4973 18.0547 38.6998 18.0547 39.5469 18.5955 40.0408 19.6608 40.5347 20.7261 40.3106 21.8453 39.4542 22.7253 38.4089 23.7917 37.3565 24.85 36.31 25.9141 35.7339 26.5007 35.7374 26.8949 36.3182 27.485 37.387 28.5691 38.4699 29.6379 39.5222 30.7383 40.5663 31.8144 40.5404 33.5332 39.4643 34.5772 39.1093 34.9217 38.6668 35.1627 38.1848 35.274 37.941 35.3213 37.6925 35.3398 37.4445 35.3292 32.3512 35.3292 27.2582 35.3292 22.1656 35.3292 19.8685 35.3292 18.375 33.8532 18.3538 31.5526 18.3433 30.4263 18.3351 29.2988 18.3538 28.1725 18.3632 27.7466 18.2635 27.5859 17.7989 27.5859 14.2136 27.6047 10.6278 27.6047 7.04166 27.5859 6.64277 27.5859 6.51723 27.6903 6.51841 28.101 6.53249 32.9455 6.53249 37.7897 6.51841 42.6336 6.51841 43.0583 6.63573 43.1745 7.06161 43.1745 16.1799 43.1745 25.2981 43.1745 34.4164 43.1745 37.606 43.1745 40.7964 43.1745 43.9875 43.1745 44.6527 43.1745 45.0317 43.5581 44.9906 44.1658 44.9669 44.5918 44.6372 44.9375 44.2128 44.9812 44.0813 44.9906 43.9493 44.993 43.8174 44.9883 29.5918 44.9883 15.3665 44.9906 1.14154 44.9953 0.645271 44.9953 0.247549 44.8909 2.08406e-15 44.4322L2.08406e-15 43.7282C0.234644 43.3153 0.577224 43.1545 1.0559 43.1651 2.05079 43.1874 3.05037 43.1721 4.04174 43.1721 4.71399 43.1721 4.71517 43.1721 4.71517 42.5163 4.71517 31.7007 4.7183 20.8848 4.72455 10.0686 4.72455 9.61922 4.61779 9.42095 4.16024 9.27782 1.653 8.49002 0.259111 5.81887 1.0469 3.31165 1.16291 2.94243 1.32352 2.58876 1.52519 2.25845 2.26783 1.03478 3.38591 0.351966 4.74215 0ZM29.713 33.5165 37.2216 33.5165C37.6908 33.5165 38.132 33.4567 38.3525 32.9463 38.5731 32.436 38.281 32.1169 37.9607 31.7954 36.9986 30.831 36.0381 29.8655 35.0793 28.8987 33.6526 27.4615 33.6538 25.9293 35.0851 24.4886 36.0847 23.482 37.089 22.4789 38.0827 21.4652 38.5344 21.0065 38.5625 20.4516 38.1109 20.1336 37.8542 19.9708 37.5559 19.8857 37.2521 19.8884 34.6628 19.8696 32.0735 19.8884 29.4842 19.8685 29.0782 19.8685 28.9961 20.0128 29.002 20.38 29.0208 21.6236 29.0125 22.8672 29.002 24.1108 29.0053 26.0366 27.4468 27.6002 25.521 27.6035 23.9114 27.6094 22.3017 27.6141 20.6921 27.6035 20.3401 27.6035 20.2052 27.6985 20.2111 28.0728 20.2322 29.1991 20.2638 30.3289 20.2111 31.4517 20.15 32.6401 20.8903 33.5494 22.2935 33.533 24.7678 33.4966 27.2398 33.5177 29.713 33.5165ZM8.5645 4.76444C8.4859 3.12898 7.40067 1.83961 5.63967 1.81614 4.01358 1.79503 2.71718 2.95886 2.6984 4.71986 2.67729 6.34594 3.83525 7.6447 5.60212 7.66816 7.2329 7.68928 8.44718 6.5231 8.5645 4.76444Z" fill="#0D1117" transform="matrix(1.02222 0 0 1 259.004 273)"/><path d="M21.3948 23.3893C20.8902 23.3992 20.4716 23.001 20.4563 22.4965 20.4665 21.9783 20.8948 21.5664 21.4131 21.5766 21.4149 21.5766 21.4165 21.5767 21.4183 21.5767 21.9211 21.576 22.3293 21.9831 22.3299 22.4859 22.3299 22.489 22.3299 22.4921 22.3299 22.4953 22.3298 22.9897 21.9289 23.3904 21.4345 23.3902 21.4212 23.3902 21.408 23.3899 21.3948 23.3893Z" fill="#0D1117" transform="matrix(1.02222 0 0 1 259.004 273)"/><path d="M13.8921 12.1475C13.3914 12.1574 12.9773 11.7594 12.9675 11.2587 12.9576 10.7579 13.3556 10.3439 13.8563 10.3341 13.8765 10.3337 13.8967 10.3339 13.9167 10.3349 14.4175 10.325 14.8315 10.723 14.8413 11.2237 14.8512 11.7245 14.4532 12.1385 13.9525 12.1483 13.9323 12.1487 13.9122 12.1485 13.8921 12.1475Z" fill="#0D1117" transform="matrix(1.02222 0 0 1 259.004 273)"/></g></svg>