<svg width="38" height="30" xmlns="http://www.w3.org/2000/svg" xmlns:xlink="http://www.w3.org/1999/xlink" xml:space="preserve" overflow="hidden"><defs><clipPath id="clip0"><rect x="510" y="354" width="38" height="30"/></clipPath></defs><g clip-path="url(#clip0)" transform="translate(-510 -354)"><path d="M12.83 19.9981C12.9389 19.8348 13.0115 19.6351 13.1566 19.49 19.2178 13.4107 25.2789 7.34957 31.3582 1.28844 32.6285 0.0181471 34.2254-0.326648 35.7316 0.326648 38 1.32474 38.7259 4.17383 37.2015 6.13372 37.0201 6.36963 36.8204 6.56925 36.6208 6.76886 29.6523 13.7555 22.6657 20.724 15.6972 27.7106 13.8099 29.5979 11.6141 29.5979 9.72684 27.7106 6.8596 24.8434 3.99236 21.9943 1.16141 19.1089-0.961796 16.9494-0.0181471 13.4651 2.86724 12.7393 4.24642 12.3945 5.49857 12.7393 6.5148 13.7555 8.42025 15.6428 10.3438 17.5664 12.2493 19.4718 12.3945 19.617 12.4852 19.7985 12.5941 19.9618 12.6667 19.9799 12.7574 19.9981 12.83 19.9981Z" fill="#FFD700" transform="matrix(1 0 0 1.02484 510 354.075)"/></g></svg>