<svg xmlns="http://www.w3.org/2000/svg" viewBox="0 0 1169.93 892.53"><defs><style>.cls-1{fill:#c0a900;}</style></defs><g id="Layer_2" data-name="Layer 2"><g id="Layer_1-2" data-name="Layer 1"><path class="cls-1" d="M394.79,612.78c3.36-5,5.59-11.12,10.06-15.57Q684.78,317.74,965.25,39.38C1004.36.45,1053.53-10.11,1099.9,9.91c69.84,30.59,92.19,117.9,45.26,178-5.59,7.23-11.73,13.35-17.88,19.46Q805.46,528.52,483.07,849.15C425,907,357.36,907,299.25,849.15,211,761.28,122.7,674,35.54,585.53c-65.37-66.18-36.32-173,52.52-195.21,42.46-10.57,81,0,112.3,31.14C259,479.3,318.25,538.26,376.92,596.65c4.47,4.45,7.26,10,10.61,15a32.67,32.67,0,0,0,7.26,1.11Z"/></g></g></svg>