<svg xmlns="http://www.w3.org/2000/svg" viewBox="0 0 214.25 214.25"><defs><style>.cls-1{fill:#f2f2f2;}</style></defs><g id="Layer_2" data-name="Layer 2"><g id="Layer_1-2" data-name="Layer 1"><path class="cls-1" d="M95.4,44.11l74.77,75c-.57.6-1.28,1.39-2,2.14q-39.28,39.22-78.56,78.47a16.52,16.52,0,0,1-10,4.87c-21.66,3-43.31,6.18-65,9.3-3.72.54-7.4.8-10.6-1.75a10.11,10.11,0,0,1-3.94-9.81c1.26-9.4,2.61-18.8,3.94-28.19,1.9-13.35,3.85-26.69,5.71-40a14.16,14.16,0,0,1,3.94-8.5Q54,85.46,94.17,45.22C94.52,44.87,94.91,44.55,95.4,44.11Z"/><path class="cls-1" d="M185.94,103.82c-25.36-25.37-50.18-50.18-75.2-75.2,8.6-8.14,16-17.87,27.09-23.18C158-4.18,176.6-.66,193.48,13c12.18,9.83,19.4,22.69,20.62,38.53A45.28,45.28,0,0,1,204.2,84C198.64,91,192.09,97.2,185.94,103.82Z"/></g></g></svg>