<svg xmlns="http://www.w3.org/2000/svg" viewBox="0 0 213.37 213.39"><defs><style>.cls-1{fill:#939393;}</style></defs><g id="Layer_2" data-name="Layer 2"><g id="Layer_1-2" data-name="Layer 1"><path class="cls-1" d="M106.74,213.39A106.7,106.7,0,1,1,213.37,106.57,106.56,106.56,0,0,1,106.74,213.39ZM96.1,128h0c0,10.29,0,20.58,0,30.87a15.26,15.26,0,0,0,.49,4.43A10.58,10.58,0,0,0,117.27,160q.08-31.92,0-63.85a11.81,11.81,0,0,0-.42-3.24,10.58,10.58,0,0,0-11.53-7.5,10.41,10.41,0,0,0-9.19,10.19C96,106.41,96.1,117.2,96.1,128Zm21.18-74.76a10.6,10.6,0,1,0-10.51,10.7A10.41,10.41,0,0,0,117.28,53.23Z"/></g></g></svg>