<svg xmlns="http://www.w3.org/2000/svg" viewBox="0 0 598.47 494.04"><defs><style>.cls-1{fill:#c15972;}.cls-2{fill:#763548;}.cls-3{fill:#fff;}</style></defs><g id="Layer_2" data-name="Layer 2"><g id="Layer_1-2" data-name="Layer 1"><path class="cls-1" d="M162,162A161.93,161.93,0,0,1,21.68,81,161.19,161.19,0,0,0,0,162V332A162,162,0,0,0,162,494H412.09V162Z"/><polygon class="cls-1" points="547.66 328.02 598.48 162 481.02 162 481.02 494.04 598.1 494.04 547.66 328.02"/><path class="cls-2" d="M162,162V0A161.93,161.93,0,0,0,21.68,81,161.93,161.93,0,0,0,162,162Z"/><rect class="cls-1" x="364.6" y="162" width="139.4" height="332.04"/><path class="cls-3" d="M355.19,221.36H374a19.53,19.53,0,0,1,19.53,19.53v76.23a28.72,28.72,0,0,1-28.72,28.72h-.44a28.72,28.72,0,0,1-28.72-28.72V240.89a19.53,19.53,0,0,1,19.53-19.53Z"/><circle class="cls-3" cx="364.6" cy="405.74" r="28.94"/></g></g></svg>