<svg xmlns="http://www.w3.org/2000/svg" viewBox="0 0 192 192"><defs><style>.cls-1{fill:#fff;}</style></defs><g id="Layer_2" data-name="Layer 2"><g id="Layer_1-2" data-name="Layer 1"><path class="cls-1" d="M192,96A96,96,0,1,1,0,95.84C0,43,43.19,0,96.08,0A96.15,96.15,0,0,1,192,96ZM96,14.93a81.07,81.07,0,1,0,81.09,81A81,81,0,0,0,96,14.93Z"/><path class="cls-1" d="M85,96c.86.9,1.58,1.7,2.34,2.46q14.31,14.33,28.63,28.63a7.43,7.43,0,0,1,2.05,8.22c-1,2.75-3.12,4.72-6,4.64a9.87,9.87,0,0,1-6.16-2.18c-12.31-12-24.44-24.2-36.55-36.4-3.26-3.29-3.18-7.6.14-11Q87.62,72.14,105.9,54c3.23-3.21,7.77-3.33,10.73-.48s3,7.55-.31,10.94c-9.62,9.75-19.32,19.42-29,29.12C86.57,94.29,85.85,95.09,85,96Z"/></g></g></svg>