<svg xmlns="http://www.w3.org/2000/svg" viewBox="0 0 192 192"><defs><style>.cls-1{fill:#fff;}</style></defs><g id="Layer_2" data-name="Layer 2"><g id="Layer_1-2" data-name="Layer 1"><path class="cls-1" d="M0,96a96,96,0,1,1,192,.17C192,149,148.81,192,95.92,192A96.16,96.16,0,0,1,0,96Zm96,81.08a81.07,81.07,0,1,0-81.08-81A81,81,0,0,0,96,177.07Z"/><path class="cls-1" d="M107,96c-.86-.9-1.58-1.7-2.34-2.46Q90.36,79.21,76,64.91A7.42,7.42,0,0,1,74,56.69c1-2.75,3.11-4.73,6-4.64a9.88,9.88,0,0,1,6.17,2.18c12.31,12,24.43,24.19,36.54,36.4,3.27,3.29,3.18,7.6-.14,10.94Q104.39,119.87,86.09,138c-3.23,3.22-7.77,3.34-10.72.49s-3.05-7.55.3-11c9.62-9.75,19.33-19.41,29-29.11C105.42,97.71,106.15,96.91,107,96Z"/></g></g></svg>