<svg xmlns="http://www.w3.org/2000/svg" viewBox="0 0 192 192"><defs><style>.cls-1{fill:#101318;}</style></defs><g id="Layer_2" data-name="Layer 2"><g id="Layer_1-2" data-name="Layer 1"><path class="cls-1" d="M192,96.22C192,149.11,148.76,192,95.55,192,42.89,192,0,148.68,0,95.63,0,42.81,43.32,0,96.59,0,149.06.05,192,43.37,192,96.22Zm-180-.4A84,84,0,1,0,96.33,12,84.13,84.13,0,0,0,12,95.82Z"/><path class="cls-1" d="M114.37,96.22,101.14,83,81.06,62.91a13.14,13.14,0,0,1-1.84-2.11,4.65,4.65,0,0,1,6.42-6.35,11.87,11.87,0,0,1,1.93,1.69q17.78,17.74,35.52,35.51c3.29,3.29,3.28,5.42,0,8.74L87.53,135.91c-.38.38-.76.79-1.18,1.14a4.68,4.68,0,0,1-6.55-6.66c.5-.6,1.08-1.13,1.64-1.68Q96.79,113.35,112.15,98A28.4,28.4,0,0,1,114.37,96.22Z"/></g></g></svg>