<svg width="46" height="45" xmlns="http://www.w3.org/2000/svg" xmlns:xlink="http://www.w3.org/1999/xlink" xml:space="preserve" overflow="hidden"><defs><clipPath id="clip0"><rect x="430" y="273" width="46" height="45"/></clipPath></defs><g clip-path="url(#clip0)" transform="translate(-430 -273)"><path d="M23.9954 0C24.8338 0.117423 25.6745 0.217232 26.5082 0.359314 35.2915 1.85059 42.7126 8.90771 44.4587 17.6205 46.1824 26.1924 43.7905 33.5149 37.3288 39.4177 34.0973 42.3697 30.2376 44.1428 25.8918 44.744 18.5599 45.7597 12.1591 43.7342 6.80583 38.6181 3.24792 35.2128 1.13196 31.0091 0.287686 26.1642 0.166741 25.4714 0.0951126 24.7762 0 24.0835L0 21.007C0.117423 20.1709 0.212536 19.3302 0.359314 18.5 0.936264 15.234 2.23791 12.1387 4.16852 9.44198 4.48321 8.99812 5.03979 8.90301 5.44021 9.19539 5.86175 9.50421 5.92869 10.0103 5.57289 10.5176 4.31024 12.2981 3.334 14.2652 2.67959 16.3476-0.621167 26.9744 5.08559 38.3515 15.5691 42.0492 27.0848 46.1096 39.6056 39.4659 42.594 27.6061 45.539 15.9319 38.1695 4.78851 27.1247 2.2827 21.2712 0.955823 15.8333 2.03964 10.8381 5.35918 10.7407 5.42494 10.6456 5.49305 10.5458 5.55528 10.0667 5.85353 9.55118 5.77369 9.2635 5.35801 8.97581 4.94233 9.09676 4.41863 9.54766 4.09571 12.8398 1.77487 16.6974 0.385814 20.7134 0.0751508 20.8133 0.0591138 20.9116 0.0339585 21.007 1.24302e-07Z" fill="#0D1117" transform="matrix(1.02222 0 0 1 430 273.004)"/><path d="M26.1912 18.8112C27.6731 18.8112 29.0915 18.8112 30.51 18.8112 32.4768 18.8112 34.0902 20.2285 34.2675 22.099 34.4554 24.0647 33.1873 25.7497 31.2145 26.136 30.9694 26.1767 30.7209 26.194 30.4724 26.1877 29.0962 26.1935 27.72 26.1877 26.3427 26.1935 26.3145 26.1935 26.2851 26.2018 26.1865 26.217L26.1865 26.6656C26.1865 27.969 26.1865 29.2712 26.1865 30.5746 26.2256 32.6119 24.6059 34.295 22.5686 34.3342 20.5314 34.3733 18.8481 32.7536 18.809 30.7163 18.8081 30.6726 18.8081 30.6288 18.8088 30.5852 18.8029 29.1373 18.8088 27.6907 18.8088 26.19L18.318 26.19C17.0005 26.19 15.6818 26.1971 14.3644 26.19 12.3277 26.156 10.7042 24.4774 10.7382 22.4407 10.7713 20.4551 12.3706 18.8523 14.3561 18.8147 15.8192 18.8053 17.2823 18.8147 18.8182 18.8147L18.8182 18.345C18.8182 17.0263 18.8182 15.7088 18.8182 14.3914 18.9157 12.3568 20.644 10.7863 22.6787 10.8838 24.5697 10.9743 26.0852 12.4819 26.1853 14.3726 26.1971 15.8333 26.1912 17.2952 26.1912 18.8112ZM20.5666 27.9619C20.5666 28.825 20.5537 29.6892 20.5666 30.5523 20.5913 31.8674 21.7503 32.7645 22.9867 32.4428 23.8615 32.215 24.4263 31.4611 24.431 30.4806 24.4381 28.8121 24.431 27.1435 24.431 25.4737 24.431 24.7457 24.7422 24.4381 25.4737 24.4369 27.1282 24.4369 28.7839 24.4674 30.436 24.4169 30.9124 24.3922 31.3737 24.2409 31.7723 23.9789 32.4627 23.5186 32.6694 22.6427 32.3982 21.8653 32.1185 21.0826 31.3728 20.5638 30.5417 20.5737 28.8579 20.5619 27.174 20.5737 25.4925 20.5737 24.7363 20.5737 24.4357 20.2684 24.4357 19.5086 24.4357 17.8647 24.4651 16.2279 24.4158 14.5898 24.3936 14.1135 24.2475 13.6514 23.9919 13.2488 23.5398 12.5549 22.6615 12.3365 21.8782 12.596 21.0784 12.8755 20.5481 13.6369 20.5631 14.4841 20.5537 16.168 20.5631 17.8518 20.5631 19.5333 20.5631 20.2602 20.2496 20.5702 19.5204 20.5713 17.8659 20.5713 16.2102 20.5467 14.5569 20.5889 14.1084 20.6069 13.6719 20.7391 13.2888 20.9729 12.576 21.4156 12.3247 22.3104 12.5842 23.103 12.8534 23.9067 13.6096 24.4458 14.4571 24.4381 16.1703 24.4498 17.8835 24.4381 19.5955 24.4439 20.2355 24.4439 20.5643 24.7774 20.5666 25.4197 20.569 26.2628 20.5655 27.1118 20.5666 27.9619Z" fill="#0D1117" transform="matrix(1.02222 0 0 1 430 273.004)"/><path d="M21.9135 40.781C16.8831 40.5215 12.583 38.6404 9.12259 34.9545 6.89227 32.5912 5.34945 29.6639 4.66052 26.4883 4.51726 25.8424 4.76033 25.3622 5.28521 25.2436 5.81009 25.125 6.24925 25.4632 6.4019 26.1477 6.92696 28.5562 8.00874 30.8083 9.56058 32.7234 12.3717 36.1956 15.9895 38.2658 20.4281 38.8623 21.0927 38.9515 21.7679 38.9797 22.4384 39.0185 23.0173 39.0525 23.3777 39.3778 23.3777 39.8956 23.3777 40.4135 22.9985 40.7716 22.3961 40.7775Z" fill="#0D1117" transform="matrix(1.02222 0 0 1 430 273.004)"/><path d="M5.11377 23.3848C4.62561 23.3977 4.21942 23.0124 4.20651 22.5243 4.19361 22.0361 4.57887 21.6299 5.06704 21.617 5.55519 21.6041 5.96139 21.9893 5.97429 22.4776 5.97436 22.4805 5.97443 22.4836 5.97448 22.4865 5.99915 22.9574 5.63746 23.3589 5.16665 23.3836 5.14903 23.3845 5.13141 23.3849 5.11377 23.3848Z" fill="#0D1117" transform="matrix(1.02222 0 0 1 430 273.004)"/><path d="M7.20507 6.33027C7.67215 6.30869 8.06828 6.66985 8.08985 7.13692 8.09082 7.15767 8.09101 7.17844 8.09044 7.1992 8.10472 7.67694 7.72903 8.0758 7.25129 8.09009 7.24019 8.09042 7.22909 8.09054 7.21799 8.09044 6.75098 8.11328 6.35386 7.7532 6.33102 7.28619 6.33 7.26543 6.32976 7.24464 6.33027 7.22386 6.32184 6.73884 6.70817 6.33883 7.19319 6.3304 7.19715 6.33033 7.20112 6.33028 7.20507 6.33027Z" fill="#0D1117" transform="matrix(1.02222 0 0 1 430 273.004)"/></g></svg>