<svg xmlns="http://www.w3.org/2000/svg" viewBox="0 0 213.37 213.38"><defs><style>.cls-1{fill:#f2f2f2;}</style></defs><g id="Layer_2" data-name="Layer 2"><g id="Layer_1-2" data-name="Layer 1"><path class="cls-1" d="M106.56,213.38C47.4,213.21-.27,165.39,0,106.49.27,47.28,48.15-.39,107,0c59.22.4,106.47,47.8,106.41,106.74A106.53,106.53,0,0,1,106.56,213.38Zm15.2-106.72,27.38-27.3c.93-.92,1.87-1.81,2.75-2.77,4.29-4.71,4.26-11.15-.07-15.32s-10.61-4.06-15.09.3c-6.1,5.92-12,12-18,18L106.29,92a22.69,22.69,0,0,0-2.09-2.88c-9-9-18-18-26.91-27-3.22-3.26-7-4.71-11.42-3.4-8,2.31-10.2,11.88-4.15,18,9.11,9.28,18.36,18.41,27.55,27.61.74.74,1.43,1.53,2.42,2.6-1,.88-2,1.53-2.73,2.3q-13.59,13.56-27.15,27.15c-4.63,4.69-4.73,11.2-.38,15.52s10.88,4.15,15.74-.67q13.64-13.51,27.14-27.16a14.54,14.54,0,0,0,1.74-3l16.35,16.37c4.81,4.81,9.56,9.67,14.45,14.4a10.4,10.4,0,0,0,12.43,2c4.08-2.12,6.62-6.42,5.57-10.93a16,16,0,0,0-4-7.11C141.4,126.11,131.7,116.59,121.76,106.66Z"/></g></g></svg>