<svg width="46" height="45" xmlns="http://www.w3.org/2000/svg" xmlns:xlink="http://www.w3.org/1999/xlink" xml:space="preserve" overflow="hidden"><defs><clipPath id="clip0"><rect x="683" y="273" width="46" height="45"/></clipPath></defs><g clip-path="url(#clip0)" transform="translate(-683 -273)"><path d="M0 17.4973C0.208888 17.2766 0.393131 17.0279 0.630183 16.8424 7.68698 11.3253 14.7465 5.81286 21.8088 0.305117 22.331-0.102097 22.6549-0.10327 23.1877 0.305117 26.1074 2.58176 29.0263 4.85918 31.9445 7.13738 32.1053 7.26295 32.2673 7.38499 32.5125 7.57393L32.5125 6.9238C32.5125 6.03075 32.5125 5.13769 32.5125 4.24464 32.5125 3.60272 32.847 3.26944 33.4854 3.26827 35.1104 3.26827 36.7357 3.26827 38.3614 3.26827 39.0326 3.26827 39.3589 3.59451 39.36 4.26224 39.36 7.01416 39.3659 9.76725 39.353 12.5192 39.3369 12.7945 39.4688 13.0575 39.6992 13.2092 41.3007 14.4406 42.8932 15.6818 44.4766 16.9328 45.1373 17.4503 45.1666 17.9514 44.574 18.5487 43.6774 19.4524 42.7597 20.3372 41.8749 21.2561 41.3996 21.7525 40.9197 22.0294 40.232 21.5506L40.232 25.7342C40.232 26.612 40.232 27.4945 40.232 28.3688 40.232 28.9767 39.8905 29.3534 39.3565 29.3534 38.8226 29.3534 38.4811 28.9779 38.4799 28.37 38.4799 25.7495 38.4799 23.129 38.467 20.5074 38.4571 20.2868 38.359 20.0796 38.1947 19.9323 33.0312 15.8868 27.865 11.8494 22.696 7.82037 22.6385 7.77578 22.5786 7.73588 22.4812 7.66781L20.2856 9.3882C15.798 12.8885 11.3097 16.3883 6.82053 19.8877 6.61164 20.0509 6.49312 20.2069 6.49312 20.4968 6.5025 27.9487 6.50485 35.4006 6.50016 42.8525L6.50016 43.2151 8.96456 43.2151 8.96456 42.7597C8.96456 40.1827 8.96456 37.606 8.96456 35.0297 8.96456 34.5368 9.24973 34.1836 9.67806 34.1109 10.0985 34.0272 10.5165 34.2659 10.658 34.6706 10.704 34.8387 10.723 35.0129 10.7143 35.187 10.7143 37.6905 10.7143 40.1941 10.7143 42.6975L10.7143 43.2069 38.4916 43.2069 38.4916 42.7374C38.4916 40.2191 38.4916 37.701 38.4916 35.1835 38.4916 34.5685 38.8226 34.193 39.3553 34.1871 39.8881 34.1813 40.2437 34.5568 40.2437 35.1576 40.2437 37.676 40.2437 40.1944 40.2437 42.7128L40.2437 43.235 43.0766 43.235C43.3993 43.235 43.722 43.235 44.0436 43.235 44.5247 43.2409 44.8791 43.4826 44.966 43.8887 45.0762 44.287 44.8888 44.7077 44.5189 44.892 44.4696 44.9214 44.4238 44.9566 44.3757 44.9894L0 44.9894 0 43.8464C0.234705 43.3688 0.618448 43.208 1.14653 43.2245 2.11117 43.255 3.07698 43.2338 4.04279 43.2338L4.72344 43.2338 4.72344 21.5999C3.95478 21.9355 3.75528 21.8956 3.16852 21.3007 2.47614 20.6071 1.77672 19.9206 1.09138 19.2188 0.711156 18.8339 0.361446 18.4243 0 18.0242ZM4.15897 19.707C4.25286 19.6401 4.34908 19.5767 4.44062 19.5052L21.7102 6.02605C22.3674 5.51322 22.6256 5.51322 23.2945 6.03427 28.796 10.3294 34.2978 14.6241 39.8001 18.9184 40.1522 19.1942 40.5042 19.4653 40.753 19.6542 41.4231 18.9888 42.038 18.3762 42.6612 17.7554L22.4965 2.01729 2.26373 17.8094ZM34.3186 5.0309C34.2944 5.09526 34.278 5.16221 34.2693 5.2304 34.2693 6.40393 34.2587 7.57041 34.2775 8.74042 34.3053 8.90514 34.3952 9.05296 34.5286 9.1535 35.0473 9.58183 35.5848 9.98787 36.1152 10.401L37.5763 11.5311 37.5763 5.0309Z" fill="#0D1117" transform="matrix(1.02222 0 0 1 683 273.003)"/><path d="M31.8025 28.4932C31.8025 31.2314 31.8025 33.9697 31.8025 36.7079 31.8025 37.4988 31.5092 37.7922 30.7182 37.7934L14.2548 37.7934C13.4744 37.7934 13.1822 37.4941 13.1822 36.6997 13.1822 31.2232 13.1822 25.7498 13.1822 20.2797 13.1822 19.4582 13.4697 19.1742 14.2877 19.1731L30.71 19.1731C31.5232 19.1731 31.8061 19.4617 31.8061 20.2891 31.8037 23.0219 31.8025 25.7565 31.8025 28.4932ZM14.9601 20.9416 14.9601 27.5778 21.5858 27.5778 21.5858 20.9416ZM23.4024 20.9416 23.4024 27.5661 30.0282 27.5661 30.0282 20.9404ZM14.9448 36.0073 21.5858 36.0073 21.5858 29.3909 14.9448 29.3909ZM23.3942 36.0073 30.0282 36.0073 30.0282 29.3862 23.3907 29.3862Z" fill="#0D1117" transform="matrix(1.02222 0 0 1 683 273.003)"/><path d="M8.96456 31.5056C8.96456 31.0214 9.35703 30.629 9.84118 30.629 10.3253 30.629 10.7178 31.0214 10.7178 31.5056 10.7178 31.9898 10.3253 32.3823 9.84118 32.3823 9.35703 32.3823 8.96456 31.9898 8.96456 31.5056Z" fill="#0D1117" transform="matrix(1.02222 0 0 1 683 273.003)"/><path d="M39.3765 31.116C39.8605 31.1206 40.2493 31.5167 40.2449 32.0009 40.2403 32.4849 39.8441 32.8737 39.36 32.8692 38.8782 32.8647 38.4903 32.4721 38.4916 31.9903 38.4856 31.5134 38.8675 31.1218 39.3444 31.1158 39.3551 31.1157 39.3658 31.1158 39.3765 31.116Z" fill="#0D1117" transform="matrix(1.02222 0 0 1 683 273.003)"/></g></svg>