<svg xmlns="http://www.w3.org/2000/svg" viewBox="0 0 192 192"><defs><style>.cls-1{fill:#101318;}</style></defs><g id="Layer_2" data-name="Layer 2"><g id="Layer_1-2" data-name="Layer 1"><path class="cls-1" d="M0,95.78C0,42.89,43.23,0,96.44,0,149.11,0,192,43.31,192,96.36c0,52.83-43.32,95.69-96.6,95.64C42.94,192,0,148.63,0,95.78Zm180,.4A84,84,0,1,0,95.67,180,84.15,84.15,0,0,0,180,96.18Z"/><path class="cls-1" d="M77.62,95.78,90.86,109q10,10,20.07,20.09a13.2,13.2,0,0,1,1.85,2.11,4.65,4.65,0,0,1-6.42,6.35,12.92,12.92,0,0,1-1.94-1.69q-17.76-17.75-35.51-35.51c-3.29-3.3-3.28-5.42,0-8.74l35.51-35.52A16,16,0,0,1,105.65,55a4.68,4.68,0,0,1,6.55,6.66c-.5.6-1.08,1.13-1.64,1.68Q95.22,78.65,79.85,94C79.25,94.59,78.52,95.06,77.62,95.78Z"/></g></g></svg>