<svg id="Layer_2_copy" data-name="Layer 2 copy" xmlns="http://www.w3.org/2000/svg" viewBox="0 0 431.75 321.74"><defs><style>.cls-1,.cls-10{fill:#5f6b2f;}.cls-2{fill:#3f471e;}.cls-3{fill:#b77b4e;}.cls-4{fill:#ad7340;}.cls-5{fill:#101318;}.cls-6{fill:#7e4b2f;}.cls-7{fill:#d69b61;}.cls-8{fill:#fbd194;}.cls-9{fill:#818e38;stroke:#818e38;}.cls-10,.cls-11,.cls-9{stroke-miterlimit:10;}.cls-10{stroke:#5f6b2f;}.cls-11{fill:none;stroke:#231f20;}.cls-12{fill:#cf9454;}</style></defs><path class="cls-1" d="M91.34,440s216-27,421.79-3c0,0,3.54,33.72-20.7,56.19,0,0-176.49-28.09-378.11,20.94C114.32,514.09,85.26,498.05,91.34,440Z" transform="translate(-81.56 -233.55)"/><path class="cls-2" d="M162.12,436h0c-6.54.48-14.57,0-22.94-.86-30.12,2.6-47.84,4.82-47.84,4.82-.14,1.37-.26,2.71-.37,4,32.63,36,93.18,47.92,93.18,47.92s45.36,12.53,46-15.83c0,0,2.13-16.85-26-17.87a49.45,49.45,0,0,1-13-2.26l48-5.55a78.32,78.32,0,0,0,21.73-5.38,303.28,303.28,0,0,0,41.42-.87c.57,9.76,4.64,23.34.6,42.64,18.54-1,36.16-1.51,52.65-1.64a367,367,0,0,0,12.86-41.52l36.76,1.54s7.43,5.1-1.68,40.62c23.85.83,43.73,2.32,58.61,3.74,8-17.05,13.15-35.36,16.31-52.83C357.3,425.52,236.68,430.54,162.12,436Z" transform="translate(-81.56 -233.55)"/><path class="cls-3" d="M176.79,409.71c-48.75-29-52.69-97.73-8.2-133,25.48-20.19,67.44-40.52,134.15-43,136.86-5.1,183.9,90.65,188.43,124.6,5.11,38.3-3.06,136.34-66.38,175.15,0,0-32.68,8.68-16.34-42.38s6.64-57.71,6.64-57.71l-36.77-1.53s-20.43,87.93-54.64,102.18c0,0-34.82,1.29-16.85-40.39C319.6,464,313,445,312.21,432.38,312.21,432.38,230,441.39,176.79,409.71Z" transform="translate(-81.56 -233.55)"/><path class="cls-4" d="M249.06,438.64,198,444.55a71.87,71.87,0,0,1-79.66-63.14l-.62-5.32a71.87,71.87,0,0,1,63.14-79.66l51.07-5.91a71.89,71.89,0,0,1,79.66,63.14l.61,5.32C316.76,398.41,292.84,434.06,249.06,438.64Z" transform="translate(-81.56 -233.55)"/><path class="cls-5" d="M302,519.19s3.49,9.25-1.77,25c-2.55,7.66-8,25.63,23.64-11.9C355.21,495.12,302,519.19,302,519.19Z" transform="translate(-81.56 -233.55)"/><path class="cls-5" d="M404.09,519.15s1.58,9.29-3.68,25.06c-2.55,7.66-8,25.63,23.64-11.9C455.43,495.12,404.09,519.15,404.09,519.15Z" transform="translate(-81.56 -233.55)"/><path class="cls-5" d="M238,461.79s4,9,18.81,16.6c7.19,3.66,23.7,12.64-25.19,8.09C183.13,482,238,461.79,238,461.79Z" transform="translate(-81.56 -233.55)"/><path class="cls-4" d="M162.83,290s-77.62,15.09-81.19,93.78S195,485.49,195,485.49s45.36,12.53,46-15.83c0,0,2.13-16.85-26-17.87s-45-26.05-45-26.05Z" transform="translate(-81.56 -233.55)"/><path class="cls-6" d="M170,425.74l-6.41-121.65a71.85,71.85,0,0,0-57.5,78.76l.61,5.32a71.88,71.88,0,0,0,79.66,63.14l15.57-1.8C181.71,443.14,170,425.74,170,425.74Z" transform="translate(-81.56 -233.55)"/><path class="cls-3" d="M176.79,409.71c-48.75-29-52.69-97.73-8.2-133,25.48-20.19,67.44-40.52,134.15-43,136.86-5.1,183.9,90.65,188.43,124.6,5.11,38.3-3.06,136.34-66.38,175.15,0,0-32.68,8.68-16.34-42.38s6.64-57.71,6.64-57.71l-36.77-1.53s-20.43,87.93-54.64,102.18c0,0-34.82,1.29-16.85-40.39C319.6,464,313,445,312.21,432.38,312.21,432.38,230,441.39,176.79,409.71Z" transform="translate(-81.56 -233.55)"/><path class="cls-6" d="M315.94,506.43c13.36-27.55,20.48-95.12-4.57-125.5a72,72,0,0,1-42,52.27,305,305,0,0,0,42.83-.82C313,445,319.6,464,306.83,493.66c-15.35,35.62,7.84,39.85,14.91,40.33C314.58,530.15,308.24,522.31,315.94,506.43Z" transform="translate(-81.56 -233.55)"/><path class="cls-7" d="M491.17,358.34c-4.53-33.95-51.57-129.7-188.43-124.6-35.18,1.32-63.47,7.6-86.1,16.2C357,236.3,441.52,279.65,467.17,353.23c17.89,51.32,2.27,113.9-10.35,150.38C490.87,457.41,495.24,388.88,491.17,358.34Z" transform="translate(-81.56 -233.55)"/><path class="cls-4" d="M249.06,438.64,198,444.55a71.87,71.87,0,0,1-79.66-63.14l-.62-5.32a71.87,71.87,0,0,1,63.14-79.66l51.07-5.91a71.89,71.89,0,0,1,79.66,63.14l.61,5.32C316.76,398.41,292.84,434.06,249.06,438.64Z" transform="translate(-81.56 -233.55)"/><path class="cls-8" d="M292.34,376.94,290.39,360A56.33,56.33,0,0,0,228,310.57l-60.33,7A56.32,56.32,0,0,0,118.17,380l.17,1.44A71.86,71.86,0,0,0,198,444.54l15.77-1.82,29.1-3.37A56.3,56.3,0,0,0,292.34,376.94Z" transform="translate(-81.56 -233.55)"/><path class="cls-6" d="M376.71,438.23c-.33,1-.59,2-.82,3C376.19,440.15,376.46,439.15,376.71,438.23Z" transform="translate(-81.56 -233.55)"/><path class="cls-6" d="M421.82,412.7a29.37,29.37,0,0,1-2.73,7,2.41,2.41,0,0,1-4.36-.42c-1.75-5.13-5.49-13.64-12-17.33a2.13,2.13,0,0,0-3.13,2.23c.76,4.49,1,12.09-4.09,17.63a1.77,1.77,0,0,1-3.05-.9c-.76-4.15-2.67-11.42-7.07-15.89a1.31,1.31,0,0,0-2.26.92c0,3.8-.63,11.69-4.6,26l36.52,1.52s9.7,6.64-6.64,57.71,16.34,42.38,16.34,42.38c.6-.37,1.19-.75,1.78-1.13-5.86-3.86-10.62-11.24-6.89-25.42,7.22-27.42,19.87-53,6.37-94.33A2.21,2.21,0,0,0,421.82,412.7Z" transform="translate(-81.56 -233.55)"/><path class="cls-7" d="M351.37,504.29c16.37-29.09,25.95-68.25,26.87-72.1.34-14.65-1.82-28.37-8.6-37.81l-2.8-3.89a1.37,1.37,0,0,0-2.47,1.05C367,406,370.3,444,351.37,504.29Z" transform="translate(-81.56 -233.55)"/><path class="cls-6" d="M441.17,378.61a17.92,17.92,0,0,0-.36-7.5c-1.33-5.38-4.86-9.65-9.19-12.94a3.75,3.75,0,0,0-2.89-.38,3.75,3.75,0,0,0-2.62,4.61,4.39,4.39,0,0,0,1.72,2.24c-.76-.58.22.19.36.3l.81.72c.44.41.87.84,1.27,1.28.22.24.43.49.64.74l.15.18c.25.31.2.25-.15-.21.1.41.65.92.88,1.29s.57.95.82,1.44c.08.18.17.35.25.53.42.9-.23-.62,0,0a19.8,19.8,0,0,1,.76,2.37c.08.37.16.74.22,1.12l.06.42c-.26-1.37-.08-.68,0-.34a14.63,14.63,0,0,1,.07,1.62c0,.37,0,.73-.06,1.09-.06.8.19-1.18.08-.56a3.84,3.84,0,0,0,2.62,4.62c1.84.42,4.23-.56,4.61-2.62Z" transform="translate(-81.56 -233.55)"/><path class="cls-6" d="M440.91,317.64a14.83,14.83,0,0,0-2.31-3.39,21.08,21.08,0,0,0-7-5.38,27,27,0,0,0-7-2.29,4,4,0,0,0-2.89.38A3.8,3.8,0,0,0,420,309.2c-.42,1.83.55,4.24,2.62,4.61a26.9,26.9,0,0,1,2.92.69c.42.12.85.26,1.26.42l.55.2a1.73,1.73,0,0,0,.36.15c-.07,0-.84-.37-.37-.15a23.44,23.44,0,0,1,2.11,1.1c.6.35,1.16.89,1.77,1.19.08,0-.74-.59-.47-.36l.17.14.33.27c.24.2.47.42.7.63.39.38.77.77,1.12,1.18.15.17.3.35.44.53.32.38-.62-.84-.34-.45l.22.3c.2.28.39.57.57.86a7.31,7.31,0,0,1,.49.91,3.74,3.74,0,0,0,2.24,1.73,3.77,3.77,0,0,0,4.62-2.62,4.39,4.39,0,0,0-.38-2.89Z" transform="translate(-81.56 -233.55)"/><path class="cls-6" d="M414.07,356.3c0-6.09-3.41-12.31-7.69-16.42a29.88,29.88,0,0,0-8.13-5.54,3.83,3.83,0,0,0-5.13,1.34c-.87,1.66-.55,4.24,1.35,5.13a32.7,32.7,0,0,1,3.58,2,6.88,6.88,0,0,1,1.53,1.07s-.58-.46-.25-.19l.39.32.66.56a23.9,23.9,0,0,1,2.33,2.39c.16.19.31.42.48.59,0,0-.49-.67-.27-.34l.19.25c.3.41.58.82.84,1.25a21.68,21.68,0,0,1,1.24,2.27c.09.18.16.37.25.55.25.53-.37-.95-.09-.21.12.34.26.68.37,1a21,21,0,0,1,.83,3.39c.11.64-.12-1.05-.07-.57l0,.3c0,.15,0,.3,0,.45s0,.29,0,.43a3.75,3.75,0,0,0,7.5,0Z" transform="translate(-81.56 -233.55)"/><path class="cls-6" d="M399.6,296.53c-4.8-6.53-13-10.2-21-10.24a3.77,3.77,0,0,0-3.75,3.75,3.82,3.82,0,0,0,3.75,3.75c.74,0,1.48,0,2.22.1l.53.06-.47-.07a4.44,4.44,0,0,1,1,.17,22.47,22.47,0,0,1,3.51.95l.64.24c.63.24-.83-.37.13.06.45.2.89.42,1.33.65a24.07,24.07,0,0,1,2.47,1.52c.19.13.37.28.57.41.51.36-.73-.59-.23-.18.32.27.64.52.95.79s.88.81,1.29,1.24.59.62.87.95l.21.27a6,6,0,0,0-.49-.63c1.16,1.57,3.31,2.52,5.13,1.34,1.57-1,2.59-3.44,1.35-5.13Z" transform="translate(-81.56 -233.55)"/><path class="cls-6" d="M368.44,336.58a23.23,23.23,0,0,0-2.24-6.32,35.25,35.25,0,0,0-9.66-12,47,47,0,0,0-11.05-6.64c-1.8-.77-4.11-.6-5.13,1.34-.85,1.61-.58,4.31,1.34,5.13a50.67,50.67,0,0,1,9.21,5.22c.35.25-.11-.09-.15-.12l.47.37.91.76c.53.46,1.06.93,1.56,1.42a32.89,32.89,0,0,1,2.71,2.95c.1.12.73.77.3.37s.14.19.26.36c.34.47.67.95,1,1.44.53.83,1,1.68,1.46,2.55.2.38.38.77.56,1.16.08.17.14.35.23.51s-.39-1-.2-.47l.13.33c.23.59.44,1.17.62,1.77a14.29,14.29,0,0,1,.46,1.85c.29,1.95,2.84,3.19,4.61,2.62a3.87,3.87,0,0,0,2.62-4.61Z" transform="translate(-81.56 -233.55)"/><path class="cls-6" d="M378.19,376.61a19.33,19.33,0,0,0-2.11-5.21,35,35,0,0,0-8.61-10.26,4,4,0,0,0-2.65-1.1,3.81,3.81,0,0,0-2.65,1.1c-1.27,1.38-1.61,4,0,5.3a36.28,36.28,0,0,1,5,5c.18.22.71,1.05.05.06.11.16.24.32.36.48.29.4.58.82.85,1.23.42.65.81,1.31,1.18,2s.56,1.12.82,1.69-.44-1.07-.16-.38c0,.12.09.23.13.34s.16.42.23.63a8.92,8.92,0,0,1,.33,1.15,3.77,3.77,0,0,0,4.61,2.62,3.85,3.85,0,0,0,2.62-4.62Z" transform="translate(-81.56 -233.55)"/><path class="cls-6" d="M341.39,350.66a24.51,24.51,0,0,0-3.13-4.11,29.46,29.46,0,0,0-8.54-6.58,28,28,0,0,0-7.6-2.61,3.84,3.84,0,0,0-4.61,2.62c-.42,1.84.56,4.24,2.62,4.61a25.07,25.07,0,0,1,3.1.77c.47.14.92.3,1.38.48.26.1,1,.51.08,0l.74.34a22.69,22.69,0,0,1,2.42,1.32c.36.22.71.45,1.06.68l.49.35c.14.1.78.59.26.19l.15.12.44.36c.3.26.6.52.88.78.53.49,1,1,1.52,1.52s.79.87,1.16,1.32c.07.1.15.19.23.29.37.46-.43-.58-.31-.4l.4.53c.27.39.55.78.78,1.19a3.75,3.75,0,0,0,6.48-3.79Z" transform="translate(-81.56 -233.55)"/><path class="cls-6" d="M323.78,312.21a32.79,32.79,0,0,0-7.09-5.48,33.21,33.21,0,0,0-18-4.91,3.75,3.75,0,0,0,0,7.5c.82,0,1.64,0,2.46,0l1,.07.67.08c-.44-.07-.45-.07,0,0a32.91,32.91,0,0,1,4,.95c.67.21,1.33.45,2,.7.14.06,1,.47.18.07l.9.41a33.94,33.94,0,0,1,3.14,1.7c.85.52,1.67,1.07,2.47,1.65a3.92,3.92,0,0,1,.32.25c.31.23.22.15-.29-.24a2.44,2.44,0,0,0,.43.35c.3.23.59.48.88.73.53.46,1.06.93,1.55,1.44a3.77,3.77,0,0,0,5.3,0,3.83,3.83,0,0,0,0-5.3Z" transform="translate(-81.56 -233.55)"/><path class="cls-6" d="M339.34,280.19a22.85,22.85,0,0,0-5.4-5.12,34.58,34.58,0,0,0-14.54-5.79c-1.93-.32-4.13.5-4.61,2.62-.41,1.81.55,4.27,2.62,4.61a39.41,39.41,0,0,1,4.28.95c.67.2,1.35.41,2,.65l.83.31.34.13c.38.16.3.12-.22-.1a8.13,8.13,0,0,0,1.66.77l1.32.7c.82.47,1.62,1,2.39,1.52l.54.4c.53.38-.72-.58-.26-.2.3.24.6.48.89.74s.85.77,1.25,1.19c.26.27.51.55.75.83.52.61-.64-.86-.32-.42,1.14,1.59,3.32,2.51,5.13,1.34,1.57-1,2.57-3.42,1.34-5.13Z" transform="translate(-81.56 -233.55)"/><path class="cls-6" d="M292,276.8a21.81,21.81,0,0,0-6-2.51,33.24,33.24,0,0,0-15.3-.42,3.78,3.78,0,0,0-2.62,4.62,3.85,3.85,0,0,0,4.61,2.62l1-.19c.29,0,1-.12.3-.05.63-.07,1.25-.13,1.87-.17a33.08,33.08,0,0,1,3.45,0l1.56.14c.84.09-.75-.13,0,0l.71.12c.88.16,1.76.37,2.63.62.68.2,1.36.43,2,.69l.42.17c.4.15-1-.45-.37-.16l.66.31a11.67,11.67,0,0,1,1.25.69,3.77,3.77,0,0,0,5.13-1.34A3.85,3.85,0,0,0,292,276.8Z" transform="translate(-81.56 -233.55)"/><path class="cls-6" d="M248.13,271.7a17.45,17.45,0,0,0-5.75-2.45,33.92,33.92,0,0,0-15.87,0,3.77,3.77,0,0,0-2.62,4.61,3.84,3.84,0,0,0,4.62,2.62c.78-.17,1.56-.31,2.35-.45s-.61.06.28,0l.92-.09a30.1,30.1,0,0,1,3.68-.11c.5,0,1,0,1.51.09.28,0,.56.07.83.08l-.42-.06.44.07c.83.14,1.65.31,2.46.53.66.19,1.31.4,1.95.64,1,.4-.79-.37,0,0l.64.31a9.52,9.52,0,0,1,1.16.68c1.59,1.17,4.25.32,5.13-1.34a3.86,3.86,0,0,0-1.34-5.13Z" transform="translate(-81.56 -233.55)"/><path class="cls-6" d="M205.23,284.63a36.86,36.86,0,0,0-24.33-2.08,3.75,3.75,0,0,0,2,7.24c.65-.17,1.29-.33,2-.46.38-.08.77-.14,1.15-.21l.38-.05c-.3,0-.31,0-.05,0,1.29-.08,2.55-.2,3.84-.18,1.13,0,2.26.08,3.38.2l.44.06c-.54-.09.31,0,.42.06.52.09,1,.19,1.57.3a36.82,36.82,0,0,1,4.52,1.24c.43.15.86.32,1.28.48.63.25-1.06-.47-.32-.13,1.77.82,4.12.56,5.13-1.34.87-1.66.55-4.25-1.35-5.14Z" transform="translate(-81.56 -233.55)"/><path class="cls-9" d="M197.57,328.11c36.7-23.22,72.55.33,86.48,11.75A56.33,56.33,0,0,0,228,310.57l-60.33,7a56.32,56.32,0,0,0-48.09,42c25.72-40.05,56.11-34.48,68-30.24A11.53,11.53,0,0,0,197.57,328.11Z" transform="translate(-81.56 -233.55)"/><path class="cls-10" d="M292.68,381.8c.89-7.5-1.93-29.25-5.26-34.36-6.91-2.05-20.47-4.47-39.82-.67-29.11,5.7-20.09,27.91-20.09,27.91s3.75,12.95,30.3,10.18C282.14,382.32,281.33,380.18,292.68,381.8Z" transform="translate(-81.56 -233.55)"/><path class="cls-10" d="M156.45,359.73c-20.55,2.27-33,9.15-38.64,13.11a57.24,57.24,0,0,0,.36,7.13l.17,1.44a71.67,71.67,0,0,0,10.19,29.43c6.77-8,13.77-8.1,29.55-11.7,26-5.94,25.88-18.77,25.88-18.77S185.93,356.48,156.45,359.73Z" transform="translate(-81.56 -233.55)"/><path class="cls-11" d="M127.6,414.51" transform="translate(-81.56 -233.55)"/><path class="cls-9" d="M254.24,428.28c-23.17,7.6-45.45,7.93-66.64,8.68-14.62.52-38.35-9.76-51.67-16.18A71.76,71.76,0,0,0,198,444.54l15.77-1.82,29.1-3.37A56.3,56.3,0,0,0,289,403.53,68.84,68.84,0,0,1,254.24,428.28Z" transform="translate(-81.56 -233.55)"/><path class="cls-5" d="M134.85,384.45a28.58,28.58,0,0,0,15.26,6,26,26,0,0,0,20.8-8.37,22.76,22.76,0,0,0,3.27-4.23c1.6-2.79-2.72-5.32-4.32-2.52-.15.26-.31.51-.48.76s-.4.56-.6.84.29-.37.08-.1l-.17.21-.57.69a22.93,22.93,0,0,1-6,5.06,21.18,21.18,0,0,1-19.46.6,27.06,27.06,0,0,1-3.38-1.86c-.33-.21-.64-.44-1-.66-.61-.41.3.25.09.08a2.58,2.58,0,0,0-3.53,0,2.52,2.52,0,0,0,0,3.54Z" transform="translate(-81.56 -233.55)"/><path class="cls-5" d="M188.56,404l.31.09c.42.11,0,0-.18-.09a9.37,9.37,0,0,0,.86.38,10.57,10.57,0,0,0,2.62.85,13.39,13.39,0,0,0,7.83-1.21c3.51-1.64,5.83-5,7.1-8.53a12.68,12.68,0,0,0,.61-2.27,2.57,2.57,0,0,0-1.75-3.08c-1.19-.27-2.86.36-3.07,1.75a10.44,10.44,0,0,1-.38,1.56c-.07.24-.15.48-.23.71l-.16.42c0,.07-.05.13-.07.19-.13.34,0-.2.09-.21s-.38.81-.44.93c-.17.32-.35.65-.55,1s-.41.59-.61.89.12-.16.13-.17l-.23.27c-.13.16-.27.31-.41.46s-.57.54-.86.81,0,0,.07-.05l-.23.17-.65.41a5.29,5.29,0,0,1-.52.29c-.17.09-.68.3-.23.13a13.28,13.28,0,0,1-1.59.5c-.32.07-.63.14-1,.19s0,0,0,0c-.12,0-.23,0-.35,0-.53,0-1,0-1.56,0,.48,0,.15,0-.12,0a4.34,4.34,0,0,1-.62-.16c-.19,0-.37-.12-.55-.18-.51-.18.39.18.05,0a10.53,10.53,0,0,0-2.07-.83,2.5,2.5,0,0,0-1.33,4.82Z" transform="translate(-81.56 -233.55)"/><path class="cls-5" d="M203.1,397.62c1.24,2.73,4.35,4.67,7.12,5.44,6.41,1.8,13.5-.86,18.74-4.52a31.36,31.36,0,0,0,4.55-3.73c2.24-2.32-1.29-5.86-3.54-3.54a23,23,0,0,1-4,3.3,21.72,21.72,0,0,1-10.34,4,10.83,10.83,0,0,1-4.28-.39,4,4,0,0,1-1.34-.56c-.24-.13-.47-.28-.7-.42L209,397c.24.19.29.23.15.11a8.85,8.85,0,0,1-.9-.83c-.13-.14-.24-.29-.37-.42-.3-.3.34.55,0,0-.15-.26-.33-.49-.46-.77a2.51,2.51,0,0,0-3.42-.89,2.56,2.56,0,0,0-.89,3.42Z" transform="translate(-81.56 -233.55)"/><path class="cls-5" d="M233.55,370.75a28.5,28.5,0,0,0,15.26,6,26,26,0,0,0,20.8-8.36,23.09,23.09,0,0,0,3.27-4.23c1.59-2.8-2.72-5.32-4.32-2.52q-.22.38-.48.75c-.19.29-.4.57-.6.85s.29-.38.08-.11l-.17.22-.57.68a23.09,23.09,0,0,1-6,5.06,21.18,21.18,0,0,1-19.46.6,27.06,27.06,0,0,1-3.38-1.86c-.33-.21-.64-.43-1-.65-.61-.42.3.24.09.08a2.56,2.56,0,0,0-3.53,0,2.5,2.5,0,0,0,0,3.53Z" transform="translate(-81.56 -233.55)"/><path class="cls-5" d="M205.11,379.11a12.07,12.07,0,0,0-4.2.82c-3.06,1.19-8.63,3.92-8.63,8.06,0,5.71,10.59,5.05,10.59,5.05s15.76,1.26,13.77-7.79C215.42,379.69,208.69,379.05,205.11,379.11Z" transform="translate(-81.56 -233.55)"/><path class="cls-12" d="M312.2,359l-.61-5.32a71.89,71.89,0,0,0-79.66-63.14l-11.74,1.36c35.58-2.86,73.71,22.19,81.17,58.05l1.09,5.25c5.38,40.48-3.72,56.26-24.16,73.38-7.16,6-17.79,7.81-17.79,7.81C292.84,433.47,316.76,398.41,312.2,359Z" transform="translate(-81.56 -233.55)"/><path class="cls-12" d="M215,451.79a50.59,50.59,0,0,1-6.15-.63c1.25,1,4.08,2.31,9.69,3.95,18.37,5.36,17.41,13.8,16.82,22.72-.08,1.15-1.29,5.16-3,7,5-2.73,8.49-7.42,8.66-15.16C241,469.66,243.09,452.81,215,451.79Z" transform="translate(-81.56 -233.55)"/></svg>