<svg width="46" height="45" xmlns="http://www.w3.org/2000/svg" xmlns:xlink="http://www.w3.org/1999/xlink" xml:space="preserve" overflow="hidden"><defs><clipPath id="clip0"><rect x="766" y="273" width="46" height="45"/></clipPath></defs><g clip-path="url(#clip0)" transform="translate(-766 -273)"><path d="M0 19.773C0.100367 19.519 0.213598 19.2702 0.339255 19.0276 0.78497 18.193 1.65518 17.6728 2.60135 17.6753 3.40546 17.6518 4.21193 17.6589 5.01722 17.6753 5.28721 17.6753 5.41047 17.6131 5.5173 17.336 5.93676 16.2482 6.38402 15.1714 6.85905 14.1055 6.97644 13.8508 6.93301 13.7205 6.75223 13.5455 6.19463 13.0056 5.6476 12.455 5.10878 11.9021 4.01236 10.7846 3.99828 9.21154 5.09235 8.09282 6.07998 7.07466 7.08248 6.06981 8.09986 5.07826 9.22562 3.98302 10.7869 3.99828 11.9115 5.09704 12.4671 5.63938 13.0149 6.1872 13.5549 6.74049 13.731 6.92362 13.8613 6.95884 14.1149 6.84732 15.1816 6.37776 16.2592 5.93089 17.3478 5.50673 17.5955 5.41047 17.6859 5.30952 17.68 5.04539 17.6636 4.26945 17.6694 3.4935 17.68 2.71756 17.6906 1.14689 18.8281 0.00704336 20.3929 0 21.8133 0 23.2329 0 24.6517 0 26.1046-0.0194503 27.2979 1.14248 27.3174 2.59524 27.3175 2.60784 27.3177 2.62045 27.3177 2.63304 27.3333 3.43833 27.3333 4.24362 27.3177 5.04891 27.3177 5.31421 27.4069 5.41047 27.6534 5.50673 28.7404 5.93012 29.8172 6.37776 30.8839 6.84966 31.1398 6.96705 31.269 6.92127 31.4451 6.74049 31.9839 6.18289 32.5344 5.63586 33.0885 5.09704 34.1955 4.01236 35.7544 3.9795 36.8673 5.05126 37.9105 6.05611 38.9357 7.08092 39.9429 8.12568 40.9994 9.2221 40.9818 10.774 39.9253 11.8716 39.3771 12.4421 38.8148 12.9985 38.2466 13.5479 38.0623 13.7252 38.0318 13.8566 38.1433 14.109 38.6129 15.1749 39.0605 16.2517 39.4862 17.3396 39.5813 17.5837 39.6764 17.6812 39.9429 17.6765 40.7341 17.6589 41.5241 17.6636 42.3153 17.6765 43.8613 17.6917 44.993 18.8304 44.9977 20.3764 44.9977 21.7675 44.9977 23.1586 44.9977 24.5496 44.9977 26.1543 43.8895 27.286 42.2813 27.3141 41.505 27.3282 40.729 27.3282 39.9534 27.3141 39.6928 27.3141 39.5884 27.3951 39.4909 27.6463 39.0675 28.7287 38.6211 29.8043 38.1515 30.8734 38.0423 31.1211 38.0611 31.2537 38.2489 31.4357 38.8101 31.9721 39.3571 32.5227 39.8994 33.0791 40.9982 34.2014 41.0193 35.7591 39.9253 36.8908 38.9275 37.9214 37.9129 38.936 36.8814 39.9347 35.7709 41.0064 34.2119 40.9782 33.1026 39.8959 32.5368 39.3442 31.9733 38.7878 31.4263 38.2172 31.2502 38.0329 31.1199 38.0423 30.8992 38.1386 29.8157 38.6082 28.7263 39.0671 27.6276 39.498 27.3928 39.5907 27.3141 39.6858 27.3188 39.9288 27.3329 40.6742 27.3259 41.422 27.3188 42.1686 27.3188 43.5667 26.6638 44.4565 25.3162 44.9167 25.2786 44.9296 25.2516 44.9695 25.2199 44.9965L19.7754 44.9965C19.7437 44.9695 19.7167 44.9296 19.6803 44.9167 18.3127 44.4471 17.6788 43.5702 17.6765 42.1275 17.6765 41.4102 17.6577 40.693 17.6859 39.9769 17.6976 39.66 17.5685 39.5684 17.2961 39.4651 16.2631 39.0671 15.2289 38.6657 14.2264 38.1985 13.8742 38.0353 13.697 38.0811 13.454 38.3346 12.9422 38.877 12.4104 39.4017 11.8739 39.9206 10.7846 40.9771 9.21975 40.9959 8.12921 39.9429 7.08679 38.9365 6.06237 37.912 5.05596 36.8696 3.98419 35.7615 4.00767 34.199 5.08765 33.0944 5.64055 32.5297 6.19698 31.9686 6.76632 31.4216 6.94357 31.2514 6.95766 31.1246 6.85788 30.8957 6.38832 29.8149 5.93599 28.7255 5.50086 27.6276 5.41047 27.3928 5.32126 27.3071 5.07356 27.3106 4.28392 27.3255 3.4935 27.3255 2.7023 27.3106 1.43802 27.2871 0.500078 26.591 0.0962592 25.403 0.0695626 25.3396 0.0373524 25.2788-8.39637e-10 25.2211ZM22.5059 43.238 24.3947 43.238C25.2316 43.238 25.5427 42.9339 25.5474 42.1075 25.5474 41.1121 25.5474 40.1119 25.5474 39.12 25.5474 38.4227 25.7411 38.1644 26.4091 37.9989 27.9274 37.6168 29.3814 37.0137 30.7243 36.2087 31.2842 35.8765 31.6305 35.9223 32.0954 36.3825 32.8126 37.0938 33.524 37.8123 34.2401 38.5248 34.8059 39.0871 35.2203 39.0895 35.7791 38.533 36.7018 37.6127 37.6233 36.6908 38.5436 35.7673 39.1047 35.2039 39.1059 34.7918 38.5436 34.2248 37.8393 33.5205 37.1349 32.8162 36.4306 32.1118 35.9235 31.6024 35.8777 31.2831 36.2369 30.6738 37.0242 29.3551 37.6143 27.9281 37.9883 26.4384 38.1644 25.7282 38.4321 25.5275 39.1681 25.5251 40.1788 25.5251 41.1884 25.5251 42.1991 25.5251 42.9222 25.5193 43.2368 25.1964 43.238 24.4686 43.2427 23.1656 43.2427 21.8626 43.238 20.5596 43.238 19.7578 42.9187 19.4373 42.1193 19.4338 41.1097 19.4338 40.099 19.4338 39.0883 19.4338 38.4192 19.4338 38.1632 19.2448 38.0001 18.5921 37.6172 17.0743 37.0145 15.6204 36.2111 14.2769 35.8777 13.7134 35.9235 13.3706 36.3836 12.9069 37.1056 12.1803 37.8346 11.4595 38.5565 10.7306 39.0777 10.2046 39.0801 9.77266 38.5659 9.25614 37.6268 8.31155 36.6841 7.36931 35.738 6.42941 35.2133 5.9082 34.786 5.90468 34.2601 6.42941 33.5299 7.15018 32.8103 7.88034 32.0825 8.60229 31.6129 9.07184 31.2725 9.1188 30.7137 8.78776 29.37 7.98441 27.9158 7.38245 26.3973 7.0011 25.7341 6.83675 25.5474 6.57615 25.5451 5.87181 25.5451 4.87635 25.5451 3.87619 25.5451 2.88543 25.5451 2.07662 25.2281 1.76671 24.4264 1.76553 23.1523 1.76553 21.8782 1.76553 20.6042 1.76553 19.7496 1.76553 19.4526 2.06605 19.4502 2.93943 19.4502 3.93606 19.4502 4.93504 19.4502 5.92698 19.4502 6.57145 19.2507 6.83558 18.6285 6.99288 17.097 7.3813 15.6296 7.98816 14.271 8.7948 13.7216 9.1188 13.3812 9.07184 12.9351 8.63046 12.2226 7.90734 11.5112 7.19009 10.7998 6.47637 10.2129 5.88942 9.80435 5.88942 9.22562 6.46228 8.29903 7.38182 7.37596 8.30294 6.45641 9.22562 5.9129 9.77148 5.90938 10.1917 6.44702 10.7317 7.17953 11.4701 7.92025 12.1991 8.65042 12.9386 9.05541 13.3495 9.11293 13.724 8.82533 14.2041 7.99714 15.5846 7.37506 17.0787 6.97879 18.6391 6.82501 19.2389 6.56323 19.4268 5.94342 19.4303 4.9327 19.4303 3.92315 19.4303 2.91243 19.4303 2.07662 19.4303 1.76084 19.7449 1.75849 20.5654 1.75849 21.8544 1.75849 23.1429 1.75849 24.4311 1.75849 25.2093 2.0637 25.5157 2.85021 25.5204 3.84567 25.5263 4.84583 25.5204 5.83777 25.5204 6.55736 25.5204 6.82853 25.72 6.9964 26.3997 7.37902 27.9193 7.98131 29.375 8.78424 30.7208 9.10588 31.2655 9.06128 31.6106 8.61989 32.0567 7.90969 32.7751 7.19009 33.4853 6.47754 34.2014 5.89059 34.7883 5.89059 35.1945 6.46345 35.7744 7.383 36.6986 8.30412 37.6206 9.2268 38.5401 9.77148 39.0824 10.1929 39.0859 10.7341 38.5495 11.4314 37.8592 12.1228 37.1631 12.8166 36.4693 13.3894 35.8976 13.6747 35.8566 14.3591 36.258 15.6686 37.0327 17.0827 37.615 18.5581 37.9872 19.2542 38.1609 19.4479 38.4156 19.4514 39.1317 19.4514 40.1413 19.4514 41.152 19.4514 42.1627 19.4584 42.914 19.7813 43.2321 20.5255 43.2368 21.1876 43.2415 21.8461 43.238 22.5059 43.238Z" fill="#0D1117" transform="matrix(1.02222 0 0 1 766 273.003)"/><path d="M22.48 34.2694C16.728 34.2636 11.8669 30.1385 10.889 24.4311 9.79261 18.0333 14.1513 11.9467 20.5783 10.8879 22.8861 10.4974 25.2579 10.8086 27.3869 11.7812 27.7391 11.9385 28.0149 12.1521 28.056 12.5712 28.1253 13.292 27.4691 13.6993 26.7436 13.4446 25.8785 13.1429 25.0086 12.8048 24.1129 12.6487 19.0652 11.7648 14.1161 14.9753 12.8236 19.9268 11.3574 25.5416 14.8392 31.1281 20.5466 32.322 25.9548 33.4524 31.4462 29.6866 32.3583 24.2514 32.7314 22.1173 32.4048 19.9198 31.4275 17.9864 31.2525 17.6342 31.2079 17.282 31.4486 16.9522 31.6681 16.6481 32.0003 16.4991 32.3337 16.6305 32.611 16.7399 32.8442 16.9381 32.9969 17.194 33.9979 19.0814 34.431 21.2182 34.2436 23.3464 33.8915 27.3376 31.9956 30.4226 28.6089 32.5708 26.8587 33.6778 24.6623 34.2777 22.48 34.2694Z" fill="#0D1117" transform="matrix(1.02222 0 0 1 766 273.003)"/><path d="M22.4941 30.493C21.737 30.3522 20.9681 30.2418 20.2238 30.061 19.5406 29.8979 19.2659 29.4741 19.4115 28.9388 19.5641 28.38 20.0231 28.1805 20.711 28.3742 24.1282 29.3379 27.5196 27.4515 28.4352 24.0754 29.3368 20.7615 27.232 17.2468 23.9087 16.5178 20.4152 15.7525 17.0332 17.9782 16.4415 21.4318 16.2778 22.4167 16.3494 23.4263 16.6505 24.3782 16.7784 24.8008 16.674 25.1636 16.2983 25.4159 15.9932 25.6485 15.5652 25.6288 15.2829 25.369 15.1321 25.2329 15.0195 25.0597 14.9566 24.8666 13.4305 20.3048 16.6 15.2876 21.3907 14.6713 25.6719 14.1196 29.46 16.8407 30.2888 21.0643 31.1387 25.3995 28.0326 29.7312 23.6469 30.3216 23.2712 30.3721 22.8921 30.3968 22.5141 30.4332Z" fill="#0D1117" transform="matrix(1.02222 0 0 1 766 273.003)"/><path d="M31.1082 14.818C31.1192 15.3049 30.7336 15.7083 30.2467 15.7194 30.2428 15.7195 30.2388 15.7196 30.2348 15.7196 29.7313 15.7003 29.3304 15.2912 29.3215 14.7875 29.3314 14.3141 29.7055 13.9287 30.1784 13.9048 30.6836 13.9096 31.0943 14.3132 31.1082 14.818Z" fill="#0D1117" transform="matrix(1.02222 0 0 1 766 273.003)"/><path d="M18.4465 27.4691C18.4442 27.9612 18.0509 28.3621 17.5591 28.3742 17.0692 28.3575 16.6722 27.9713 16.6423 27.482 16.6471 26.9905 17.0385 26.5903 17.5297 26.5746 18.0197 26.5929 18.4161 26.9797 18.4465 27.4691Z" fill="#0D1117" transform="matrix(1.02222 0 0 1 766 273.003)"/></g></svg>