<svg xmlns="http://www.w3.org/2000/svg" viewBox="0 0 1305.65 1209.25"><defs><style>.cls-1{fill:gold;}</style></defs><g id="Layer_2" data-name="Layer 2"><g id="Layer_1-2" data-name="Layer 1"><path class="cls-1" d="M289.31,1163.52c25.52-71,48.55-141.39,135.69-161.94-6.23-4.36-9.34-6.86-12.45-9.35-29.88-23.67-59.76-46.09-89-70.38-8.71-6.85-13.69-10-23.65-3.74-14.32,8.72-29.25,16.82-44.19,24.29C181.63,979.78,93.25,954.24,51.55,882,36,855.2,21.67,827.8,6.73,799.77c65.36-40.49,129.46-78.49,210.38-38-1.87-6.85-2.49-11.21-3.74-15.57-5-18.69-11.2-36.75-15.56-55.44-9.95-44.84-9.95-45.47-55.39-53.56C83.29,626.61,39.72,595.46,14.2,540c-13.69-30.52-18-61.67-10.58-94.68,6.85-31.76,13.07-62.91,19.92-96.54,72.2,12.46,144.4,21.18,184.23,94.05,18-34.88,35.48-67.89,51.66-101.53,1.87-3.73-2.49-12.45-6.22-16.81-23.65-29.28-40.46-61-44.82-99-6.22-59.17,11.83-109.63,55.4-149.49C291.8,49.83,322.3,27.41,354,1.87c27.39,38,62.86,69.14,78.42,113.36,26.15,73.5,9.34,138.28-46.68,192.47-147.51,142.64-165.56,368.11-36.72,527,103.32,127.06,239.63,175,399,134.54s257.68-147,287.55-309C1061.1,522,1019.4,401.75,916.7,304.58c-56-52.94-73.44-137-36.72-204.92C899.27,64.78,926,33.63,950.31,0c32.37,26.16,62.87,48.58,91.5,73.5,68.46,61,76.55,165.68,16.8,239.18-12.45,15.57-13.69,26.16-3.11,43,15.56,26.16,27.39,54.81,41.08,82.84,64.73-66.65,106.43-86.58,186.72-89.69,7.47,38,18.68,76,21.79,114.61,6.85,85.95-49.79,156.34-140,171.91-36.1,6.23-54.78,18.06-56,56.06-1.25,21.8-10.58,43-17.43,67.27,36.72-14.95,73.45-22.43,108.92-9.35,34.24,12.46,66,30.52,102.08,47.34-21.79,37.37-38.59,72.88-61.62,104-43.57,57.93-123.24,74.12-188.59,41.73-18.67-9.34-38.59-28.65-56-26.78s-31.74,25.54-47.92,38c-19.92,15.57-41.08,29.89-64.74,46.71,83.41,21.8,107.68,90.32,133.2,165.06-42.95,14.33-84.65,32.39-128.22,41.11-60.37,12.46-127.59-28.65-155-87.2a529.6,529.6,0,0,1-21.16-51.7c-3.11-9.34-8.09-11.21-18-11.21-27.39,1.24-54.77-.62-82.16.62-5.6,0-13.69,5-16.18,10-8.09,16.19-13.69,33.63-21.16,49.83-34.24,76-118.88,111.49-196.69,82.22-30.49-10.59-58.5-23-89-35.51Z"/><path class="cls-1" d="M498.44,810.36c5-53,9.34-102.78,14.94-152,1.24-11.83-1.25-19.93-9.34-28-33.61-36.74-66-74.12-101.45-114,38.59-8.72,74.69-19.93,110.79-23.67,39.83-4.36,64.73-22.42,81.53-58.55,15.56-33.63,36.73-64.78,57.27-99.66C664,354.41,674,371.85,684.54,389.29c14.94,25.54,29.26,52.33,45.44,77.24,5,7.47,14.94,15,23.65,16.82,47.93,11.83,96.47,21.8,148.13,33-14.31,16.19-26.76,30.52-39.21,44.85-19.29,21.8-38,44.84-58.5,65.4-12.45,12.46-13.7,24.91-11.83,40.48,5,43.61,9.34,87.83,13.69,131.43v11.84c-37.34-16.2-74.69-29.9-109.54-48.59-31.12-16.82-57.26-16.19-88.39,0-33,17.44-70.33,31.14-109.54,48.59Z"/></g></g></svg>