<svg xmlns="http://www.w3.org/2000/svg" viewBox="0 0 383.26 383.3"><defs><style>.cls-1{fill:#fff;}</style></defs><g id="Layer_2" data-name="Layer 2"><g id="Layer_1-2" data-name="Layer 1"><path class="cls-1" d="M383.26,378c-2,3.85-5,5.3-9.4,5.29q-182.25-.12-364.49-.06c-5.65,0-8.83-2.24-9.31-6.52-.54-4.73,2.73-8.35,7.76-8.4,7.22-.08,14.43,0,22.13,0V234.22c0-7.3,2.34-9.64,9.58-9.64q36.67,0,73.34,0c7.56,0,9.88,2.28,9.88,9.73q0,64.74,0,129.48v4.28h22.49V149.51c0-8.32,2.11-10.49,10.28-10.49q36.1,0,72.22,0c8.17,0,10.29,2.18,10.29,10.48V368.11h22.48V259.39c0-1.12-.06-2.25,0-3.36a7.47,7.47,0,0,1,14.86,0c.14,1.61,0,3.24,0,4.86V368.05h62.7V82.64h-62.7v98.49c0,1.12,0,2.24,0,3.36a7.45,7.45,0,0,1-14.88.07c-.12-2.11,0-4.24,0-6.36q0-50.7,0-101.41c0-7,2.45-9.4,9.44-9.41h74.09c6.75,0,9.25,2.5,9.25,9.23q0,143.14,0,286.28v5.4c6.82,0,13.51.21,20.17-.07,4.51-.18,7.77,1.23,9.78,5.3ZM223,154.41H160.43V368H223ZM45.06,368h62.43V239.73H45.06Z"/><path class="cls-1" d="M308.41,0c5.53,4.47,6,7,2.7,13.4-5.5,10.46-11,21-16.52,31.39-2.42,4.54-6.55,6.05-10.56,4-3.76-1.89-5.15-6.1-3.18-10.22,1.82-3.8,3.87-7.5,6.35-12.25-2.24,1.08-3.63,1.7-5,2.39L90.44,127.58c-.89.45-1.76.93-2.68,1.31-4.07,1.69-8.08.39-10-3.18a7.39,7.39,0,0,1,3.28-10.22c7.36-3.93,14.81-7.67,22.22-11.49q83.64-43.11,167.27-86.23A9.85,9.85,0,0,0,274.13,15h-5.51c-5.85,0-8.35-1.34-9.68-5.12S258.8,3.57,263.49,0Z"/><path class="cls-1" d="M268.14,228.38a7.29,7.29,0,0,1-7.62-7.36,7.47,7.47,0,0,1,14.93-.31A7.29,7.29,0,0,1,268.14,228.38Z"/><path class="cls-1" d="M58.53,143A7.47,7.47,0,1,1,58.92,128,7.47,7.47,0,0,1,58.53,143Z"/></g></g></svg>