<svg xmlns="http://www.w3.org/2000/svg" viewBox="0 0 35.74 29.74"><defs><style>.cls-1{fill:#763548;}.cls-2{fill:#c15972;}.cls-3{fill:#fff;}</style></defs><g id="Layer_2" data-name="Layer 2"><g id="Layer_1-2" data-name="Layer 1"><path class="cls-1" d="M10,9.75V0A10.18,10.18,0,0,0,1.29,4.88C3,9.19,6.39,9.75,10,9.75Z"/><path class="cls-2" d="M9.75,9.75A9.73,9.73,0,0,1,1.31,4.88,9.69,9.69,0,0,0,0,9.75V20a9.75,9.75,0,0,0,9.75,9.75H24.81v-20Z"/><path class="cls-2" d="M33.34,18.55l2.37-7.74a.82.82,0,0,0-.78-1.06H29v20h5.95a.82.82,0,0,0,.78-1l-2.36-7.75A4.14,4.14,0,0,1,33.34,18.55Z"/><rect class="cls-2" x="21.95" y="9.75" width="8.39" height="19.99"/><path class="cls-3" d="M21.39,13.33h1.12a1.18,1.18,0,0,1,1.18,1.18v4.57a1.74,1.74,0,0,1-1.74,1.74h0a1.74,1.74,0,0,1-1.74-1.74V14.51a1.18,1.18,0,0,1,1.18-1.18Z"/><circle class="cls-3" cx="21.95" cy="24.43" r="1.74"/></g></g></svg>